<svg width="243" height="59" viewBox="0 0 243 59" fill="none" xmlns="http://www.w3.org/2000/svg">
<path d="M57.5868 41.8897V38.3352H54.2579V58.2093H57.5868V49.0692C57.5868 47.3672 57.5444 45.3454 58.4283 43.9067C59.5097 42.1436 61.1177 41.4759 64.3854 41.4524V38.0108C63.0407 38.0531 59.4768 38.1377 57.5821 41.8897H57.5868Z" fill="#a3a3a3"/>
<path d="M81.0802 44.2357C81.0802 44.2357 81.1226 40.9304 78.9175 39.2519C77.3612 38.0342 74.9774 37.5734 73.1438 37.5734C69.7915 37.5734 67.4782 38.9181 66.2981 41.0997C66.2417 41.2078 66.1853 41.316 66.1382 41.4241L69.2038 42.7077C69.5329 41.4853 70.4779 40.1359 73.266 40.1359C77.695 40.1359 77.695 43.5775 77.695 45.6368V46.1399L74.5543 46.3891C68.6396 46.8546 66.5285 48.1946 65.3907 49.8778C64.803 50.757 64.5115 51.8055 64.5115 52.8633C64.5115 56.2156 67.3795 58.5101 71.2396 58.5101C75.0997 58.5101 76.8816 56.3473 77.8878 55.3035C77.9818 56.8269 78.2827 58.2327 78.2827 58.2327L81.7525 58.2139C81.3294 57.3817 81.2072 54.4243 81.2072 54.4243L81.0802 44.2357ZM77.1919 52.7317C76.2328 54.791 74.2581 55.7173 71.9542 55.7173C69.4764 55.7173 68.2164 54.3726 68.2164 52.774C68.2164 51.387 68.8464 50 72.5419 49.196C74.6906 48.74 76.4397 48.4814 77.742 48.2745C77.742 51.1754 77.695 51.6315 77.1966 52.727L77.1919 52.7317Z" fill="#a3a3a3"/>
<path d="M47.6332 32.0772L44.1963 33.5112V38.3352H41.0461V41.1139H44.1963V53.8743C44.154 56.4696 44.154 58.3409 48.0141 58.3409C49.2741 58.3409 50.6564 58.0917 51.2441 58.007V55.2565C50.5765 55.4634 49.6926 55.7173 49.0626 55.7173C47.6332 55.7173 47.6332 54.7111 47.6332 52.3697V41.1139H51.2441V38.3352H47.6332V32.0725V32.0772Z" fill="#a3a3a3"/>
<path d="M9.95345 32.0772L0 58.2139H3.69552L6.61996 50.2022H16.5781L19.4227 58.2139H23.09L13.5784 32.0772H9.95345ZM7.73426 47.2731L11.7354 36.4122L15.5485 47.2731H7.73897H7.73426Z" fill="#a3a3a3"/>
<path d="M32.1031 46.107C29.9827 45.6839 27.4955 44.894 27.4955 43.018C27.4955 41.678 28.7979 40.1311 31.4167 40.1311C34.0356 40.1311 35.6858 41.9507 35.9303 42.6701L39.0287 41.3818C37.6088 38.6783 34.7737 37.5734 31.7975 37.5734C27.204 37.5734 24.162 39.8397 24.162 43.4365C24.162 47.5316 27.6695 48.3356 31.0688 49.0738C33.9932 49.7038 36.8284 50.4232 36.8284 52.6753C36.8284 54.8052 35.0981 55.9383 32.1501 55.9383C29.7664 55.9383 28.1678 55.2706 27.2792 53.7285L23.7529 54.3491C25.1258 57.156 27.9845 58.5007 32.0044 58.5007C37.4678 58.5007 40.317 55.4775 40.317 52.2568C40.317 48.1146 36.4992 46.9956 32.1078 46.107H32.1031Z" fill="#a3a3a3"/>
<path d="M121.905 44.5743C120.73 39.5858 117.237 37.5734 113.593 37.5734C109.404 37.5734 104.476 40.4274 104.476 47.8889C104.476 54.5747 107.852 58.5571 113.72 58.5571C118.045 58.5571 120.236 56.3426 121.374 54.4055L118.135 53.7802C117.274 55.1437 115.925 56.0135 114.011 56.0464C109.319 56.1263 107.927 51.923 108.012 48.6036H122.277C122.277 47.7667 122.277 46.2528 121.905 44.5743ZM108.096 46.2105C108.473 42.2281 110.49 40.1359 113.339 40.1359C115.337 40.1359 118.332 41.0151 118.628 46.2105H108.096Z" fill="#a3a3a3"/>
<path d="M102.931 35.3402V32.0819H84.1191V35.3026H98.9718L84.105 54.8146V58.2092H103.302V55.0732H88.1391L102.931 35.3402Z" fill="#a3a3a3"/>
<path d="M133.725 37.8227C132.549 37.8227 129.385 38.1189 127.533 41.3631V38.3399H124.199V58.2139H127.533V46.944C127.533 45.4677 127.532 43.9631 129.009 42.4962C130.062 41.4477 131.331 40.9916 132.803 40.9916C134.613 40.9916 136.475 41.8285 137.058 43.7139C137.27 44.3816 137.27 44.9693 137.27 46.9816V58.2139H140.594V46.4362C140.594 44.7577 140.594 43.5446 140.255 42.3692C139.291 39.0921 136.259 37.8274 133.725 37.8274V37.8227Z" fill="#a3a3a3"/>
<path d="M159.811 44.5743C158.636 39.5858 155.147 37.5734 151.499 37.5734C147.309 37.5734 142.387 40.4274 142.387 47.8889C142.387 54.5747 145.753 58.5571 151.621 58.5571C155.946 58.5571 158.142 56.3426 159.28 54.4055L156.036 53.7802C155.175 55.1437 153.826 56.0135 151.912 56.0464C147.22 56.1263 145.828 51.923 145.908 48.6036H160.178C160.178 47.7667 160.178 46.2528 159.802 44.5743H159.811ZM146.002 46.2105C146.374 42.2281 148.395 40.1359 151.245 40.1359C153.243 40.1359 156.238 41.0151 156.534 46.2105H146.002Z" fill="#a3a3a3"/>
<path d="M196.488 44.2357C196.488 44.2357 196.539 40.9304 194.33 39.2519C192.773 38.0342 190.389 37.5734 188.551 37.5734C185.204 37.5734 182.89 38.9181 181.71 41.0997C181.649 41.2078 181.593 41.316 181.55 41.4241L184.616 42.7077C184.936 41.4853 185.89 40.1359 188.673 40.1359C193.107 40.1359 193.107 43.5775 193.107 45.6368V46.1399L189.962 46.3891C184.052 46.8546 181.945 48.1946 180.807 49.8778C180.22 50.757 179.928 51.8055 179.928 52.8633C179.928 56.2156 182.792 58.5101 186.652 58.5101C190.512 58.5101 192.298 56.3473 193.305 55.3035C193.399 56.8269 193.699 58.2327 193.699 58.2327L197.174 58.2139C196.741 57.3817 196.629 54.4243 196.629 54.4243L196.492 44.2357H196.488ZM192.609 52.7317C191.645 54.791 189.675 55.7173 187.366 55.7173C184.893 55.7173 183.633 54.3726 183.633 52.774C183.633 51.387 184.263 50 187.949 49.196C190.098 48.74 191.852 48.4814 193.149 48.2745C193.149 51.1754 193.107 51.6315 192.604 52.727L192.609 52.7317Z" fill="#a3a3a3"/>
<path d="M171.198 40.0277C173.967 40.0277 175.241 41.5323 175.829 42.8346L178.956 41.5276C177.033 38.321 173.563 37.5734 171.076 37.5734C164.747 37.5734 161.691 42.6654 161.691 48.2792C161.691 53.1407 164.343 58.5524 171.367 58.5524C175.434 58.5524 177.7 56.5871 178.941 54.6312L175.993 53.3993C175.293 54.7628 173.986 55.9947 171.405 55.9947C169.162 55.9947 165.396 54.5841 165.396 48.0347C165.396 46.2716 165.716 40.0277 171.193 40.0277H171.198Z" fill="#a3a3a3"/>
<path d="M234.451 24.4981C230.539 23.1393 220.859 19.5285 210.647 18.1885C207.139 17.7277 205.719 18.9737 207.172 22.3213C208.592 25.6266 212.292 31.1604 216.166 35.312C220.036 39.4636 224.239 40.5779 225.574 34.1836C225.626 33.958 225.668 33.7276 225.715 33.5066C226.04 31.861 226.28 30.2671 226.402 28.8707C224.686 28.0903 222.758 27.258 220.835 26.4446C220.943 27.9116 221.113 30.4458 221.207 32.3923C221.216 32.6415 221.23 32.8813 221.235 33.1211C221.352 36.2806 220.276 36.2665 218.48 34.9782C216.387 33.4831 209.979 25.02 209.245 21.2822C209.213 21.0377 209.33 21.0283 209.457 21.0659C209.504 21.0847 209.556 21.1035 209.617 21.1317C209.622 21.1317 209.626 21.1317 209.636 21.1317C211.084 21.7006 215.898 23.6001 220.788 25.6595C222.739 26.4823 224.7 27.3286 226.463 28.1279C228.198 28.913 229.745 29.6465 230.901 30.2624C233.013 31.3955 233.835 32.1619 232.951 33.0693C228.546 37.5359 213.185 43.8926 207.877 51.7492C207.877 51.7492 207.854 51.7774 207.821 51.8291C207.76 51.9137 207.703 52.0078 207.647 52.1065C207.628 52.1347 207.619 52.1676 207.6 52.1958C207.341 52.6754 206.965 53.5123 206.833 54.5279C206.608 56.244 207.501 57.8143 209.965 58.4773C210.585 58.6606 211.286 58.7923 212.057 58.8722C212.189 58.8816 212.344 58.8957 212.494 58.9004C217.229 59.1308 229.529 56.4367 233.271 54.7723C237.136 53.0562 235.984 51.3448 234.86 50.4609C234.023 49.7933 229.717 47.3907 227.629 46.2341C227.07 46.5914 226.632 46.8735 226.078 47.2308C229.632 49.403 231.038 50.4797 231.87 51.1144C232.185 51.3636 232.016 51.6598 231.541 51.6927C231.414 51.7021 231.306 51.7068 231.16 51.7209C227.784 51.956 221.39 52.4027 218.39 52.5625C217.948 52.5907 217.455 52.6143 217.177 52.6237C217.92 51.9278 218.757 51.2978 219.171 51.0063C225.589 46.4927 236.29 40.1501 239.44 37.4231C241.762 35.4155 248.1 29.261 234.465 24.5028L234.451 24.4981Z" fill="#a3a3a3"/>
<path d="M218.877 41.4806C215.327 39.5718 205.303 34.1507 201.227 31.7152C199.562 30.7185 198.391 29.9286 198.49 29.1622C198.617 28.2266 201.062 26.3177 203.375 24.0091C203.986 23.3979 204.955 22.4294 206.079 21.3057C205.773 20.1302 205.886 19.1946 206.398 18.5129C207.043 17.6666 208.204 17.3045 209.944 17.4174C212.022 15.3204 213.912 13.4115 214.579 12.7298C216.046 11.2252 217.664 9.67368 218.331 9.75831C218.919 9.83824 219.201 10.3883 219.399 11.8412C219.573 13.1294 220.033 16.8626 220.221 19.331C222.525 19.9093 224.693 20.5299 226.653 21.1364C226.418 4.12569 224.467 0.491276 220.95 0.03051C217.654 -0.406747 212.68 3.78245 201.584 17.3562C199.534 19.8575 194.71 25.9415 194.343 28.725C194.08 30.7091 196.163 31.5413 197.357 32.1619C198.471 32.7449 211.34 39.1533 217.325 42.4774C217.842 42.1389 218.36 41.8098 218.877 41.4759V41.4806Z" fill="#a3a3a3"/>
</svg>
