<svg width="176" height="49" viewBox="0 0 176 49" fill="none" xmlns="http://www.w3.org/2000/svg">
<path d="M43.9031 0H9.73486C8.67189 11.7309 32.3379 23.7467 39.345 23.7467H70.7919C56.4673 21.608 43.3589 10.2088 43.9031 0Z" fill="#a3a3a3"/>
<path d="M0.0693817 48.6924L32.7366 48.5011C38.7913 31.5574 47.6777 30.5284 70.4168 28.0156H17.4597C5.35038 30.5922 -0.70436 37.8714 0.0652295 48.6967L0.0693817 48.6924Z" fill="#a3a3a3"/>
<path d="M163.065 12.0711L161.555 19.3078C161.33 20.3792 161.151 21.2466 161.019 21.9014C160.888 22.5647 160.764 23.1982 160.645 23.8233C160.475 23.2237 160.284 22.62 160.076 22.0162C159.863 21.4039 159.591 20.6641 159.255 19.784L156.083 12.0711H143.366L137.562 39.8911H149.646L151.457 31.2045C151.534 30.8431 151.644 30.2606 151.78 29.4698C151.916 28.6789 152.052 27.8115 152.201 26.8718C152.363 27.4969 152.567 28.1134 152.796 28.7384C153.03 29.355 153.302 29.9927 153.613 30.639L158.273 39.8869H169.362L175.165 12.0668H163.065V12.0711Z" fill="#a3a3a3"/>
<path d="M76.8588 39.8911H104.573L106.103 32.5566H90.8774L91.3918 30.0735H106.622L107.949 23.7127H92.7226L93.2582 21.1361H108.484L110.376 12.071H82.6584L76.8588 39.8911Z" fill="#a3a3a3"/>
<path d="M140.709 12.071H112.953L110.648 23.1132H118.119L114.62 39.8911H127.422L130.921 23.1132H138.404L140.709 12.071Z" fill="#a3a3a3"/>
</svg>
