<svg width="141" height="50" viewBox="0 0 141 50" fill="none" xmlns="http://www.w3.org/2000/svg">
<path d="M0 49.5012H132.022L133.505 42.3665H1.5993L0 49.5012Z" fill="#a3a3a3"/>
<path d="M92.7684 34.4472C94.2605 37.3414 99.3543 40.1069 105.807 38.3575L107.235 31.6688C102.862 32.2133 101.104 31.643 100.242 30.7255C99.0627 29.4563 99.7702 26.9309 100.37 24.0796L102.429 14.398H110.892L112.427 7.19043H103.959L105.46 0H97.4806L92.2496 24.7442C91.4607 28.4401 91.1648 31.33 92.7684 34.4429V34.4472Z" fill="#a3a3a3"/>
<path d="M80.5579 23.2306C81.3168 19.6933 81.8999 17.4766 83.2291 16.1174C85.0599 14.248 87.7097 14.1451 90.8911 14.4066L92.4261 7.19903C86.8136 5.77123 81.9128 7.1733 78.6413 9.90884C75.85 12.2413 74.2593 15.2942 73.2345 20.1178L69.3542 38.3619H77.3421L80.5621 23.2306H80.5579Z" fill="#a3a3a3"/>
<path d="M52.1459 38.9278C56.6951 38.9278 61.7589 37.4914 65.2705 34.8373L62.0933 29.4734C59.4349 31.5144 46.0574 35.9607 47.4637 25.1129H68.379C68.379 25.1129 71.046 16.4218 67.2128 11.1736C63.9456 6.7016 57.93 6.62442 56.8323 6.62442C54.1354 6.62442 50.448 7.46052 46.8206 10.3032C38.6483 16.7176 34.5879 38.9235 52.1416 38.9235L52.1459 38.9278ZM57.4455 13.0173C62.8779 13.519 62.029 18.5184 62.029 18.5184H49.226C49.6762 16.7948 52.3946 12.5543 57.4455 13.0173Z" fill="#a3a3a3"/>
<path d="M13.3036 25.0744H27.3157L24.4944 38.3619H32.4738L40.6289 0.00860596H32.6539L28.8464 17.8753H14.8429L18.6417 0.00860596H10.5852L2.4429 38.3619H10.4909L13.3036 25.0744Z" fill="#a3a3a3"/>
<path d="M140.978 7.19904H116.05L114.519 14.4023H128.982L110.892 31.433L109.425 38.3619H134.354L135.889 31.1629H121.341L139.521 14.055L140.978 7.19904Z" fill="#a3a3a3"/>
</svg>
