<svg width="134" height="38" viewBox="0 0 134 38" fill="none" xmlns="http://www.w3.org/2000/svg">
<path d="M0 1.929H0.333012C0.909687 1.929 1.40108 1.9493 1.75439 1.97367C2.0671 1.99398 2.31076 2.08332 2.46508 2.19703C2.5991 2.30668 2.70876 2.48537 2.75343 2.77371C2.81841 3.10671 2.84276 3.57374 2.84276 4.19509V33.6786C2.84276 34.2796 2.82247 34.767 2.75343 35.1C2.68845 35.368 2.5991 35.567 2.46508 35.6563C2.31076 35.7904 2.0671 35.8553 1.75439 35.8797C1.39702 35.9 0.934053 35.9244 0.333012 35.9244H0V37.1021H10.8878V35.9487H10.5548C9.95372 35.9487 9.4867 35.9284 9.13338 35.9041C8.82068 35.8838 8.60138 35.7944 8.42269 35.6807C8.26837 35.5711 8.17904 35.3924 8.13437 35.1243C8.0694 34.7913 8.02472 34.3243 8.02472 33.703V4.19509C8.02472 3.59405 8.04503 3.10671 8.13437 2.77371C8.17904 2.50567 8.28868 2.30668 8.42269 2.19703C8.57702 2.08738 8.82068 1.99804 9.13338 1.97367C9.49076 1.929 9.97809 1.929 10.5548 1.929H10.8878V0.751282H0V1.929Z" fill="#a3a3a3"/>
<path d="M131.847 10.6847C130.893 8.32929 129.581 6.33124 127.981 4.75147C126.381 3.17171 124.537 1.97369 122.495 1.19802C120.452 0.422352 118.36 0.0203054 116.253 0H116.098C114.056 0 112.009 0.37768 110.011 1.15335C107.988 1.93308 106.124 3.1311 104.524 4.73117C102.924 6.30687 101.613 8.30899 100.658 10.6644C99.7038 13.0199 99.2124 15.8179 99.2124 18.9734C99.2124 21.5278 99.5698 23.9726 100.301 26.2387C101.036 28.5291 102.145 30.5475 103.59 32.2369C105.036 33.9466 106.835 35.303 108.947 36.2818C111.059 37.2605 113.503 37.7722 116.257 37.7722C119.01 37.7722 121.41 37.2605 123.502 36.2615C125.589 35.2827 127.413 33.906 128.858 32.1963C130.304 30.4866 131.413 28.4642 132.168 26.1981C132.924 23.9523 133.301 21.5116 133.301 18.9531C133.301 15.8423 132.814 13.0645 131.855 10.6888L131.847 10.6847ZM127.291 24.5493C126.868 26.393 126.202 28.1027 125.268 29.6135C124.334 31.1039 123.136 32.3466 121.646 33.2806C120.18 34.2147 118.356 34.6817 116.249 34.6817C114.141 34.6817 112.273 34.2147 110.827 33.2806C109.361 32.3466 108.159 31.1242 107.229 29.6378C106.299 28.1515 105.629 26.4377 105.207 24.5736C104.784 22.6852 104.585 20.7968 104.585 18.9734C104.585 17.15 104.784 15.2616 105.207 13.3975C105.629 11.5538 106.295 9.84408 107.229 8.33335C108.163 6.84293 109.361 5.60024 110.827 4.64588C112.293 3.71183 114.117 3.2245 116.249 3.2245C118.381 3.2245 120.16 3.69153 121.626 4.62558C123.092 5.57994 124.314 6.82669 125.224 8.31305C126.158 9.82377 126.844 11.5579 127.266 13.4219C127.689 15.3103 127.912 17.1784 127.912 18.9775C127.912 20.7765 127.713 22.6893 127.291 24.5533V24.5493Z" fill="#a3a3a3"/>
<path d="M99.651 35.035C99.2084 34.3893 98.6967 33.5689 98.1606 32.6146C97.6042 31.6602 97.0276 30.6165 96.3819 29.5038C95.7361 28.391 95.0498 27.3717 94.3391 26.4823C93.7178 25.7067 93.1614 25.0366 92.7187 24.4599C92.2517 23.8589 91.7847 23.3066 91.2974 22.7502C90.81 22.1938 90.2537 21.6171 89.608 21.0161C89.0963 20.5491 88.4302 19.9724 87.6546 19.3064C88.6333 19.1277 89.5674 18.8637 90.4527 18.5064C91.5857 18.084 92.5847 17.5073 93.4538 16.7966C94.3229 16.0859 95.0295 15.1966 95.5412 14.1529C96.0529 13.1092 96.3169 11.8868 96.3169 10.5101C96.3169 8.71101 95.9595 7.17592 95.2935 5.93323C94.6275 4.69054 93.7178 3.66714 92.5847 2.91178C91.4517 2.15642 90.1643 1.60004 88.6983 1.26704C87.2525 0.934026 85.7215 0.755341 84.1661 0.755341H71.2356V1.93306H71.5686C72.0803 1.93306 72.5027 1.97773 72.8113 2.0224C73.055 2.06707 73.254 2.13205 73.388 2.26607C73.4976 2.37572 73.587 2.57877 73.6316 2.86711C73.6763 3.20011 73.6966 3.66714 73.6966 4.19914V33.6826C73.6966 34.2593 73.6763 34.7263 73.6316 35.039C73.587 35.3071 73.522 35.4817 73.388 35.6157C73.2783 35.7254 73.0753 35.8147 72.8113 35.8594C72.4986 35.9041 72.0762 35.9244 71.5686 35.9244H71.2356V37.1021H81.502V35.9244H81.169C80.6126 35.9244 80.17 35.9 79.837 35.8797C79.5486 35.8594 79.3497 35.77 79.2359 35.6563C79.1019 35.5223 79.0126 35.3233 78.9476 35.035C78.9029 34.7223 78.8582 34.2553 78.8582 33.6786V20.4354L82.2127 20.3907C83.6341 21.6578 84.9215 22.8802 86.0545 24.0335C87.2079 25.2112 88.2759 26.4539 89.2546 27.7453C90.209 29.0327 91.1227 30.4338 91.9634 31.8998C92.7837 33.3902 93.6284 35.0756 94.4731 36.9193L94.5625 37.1183H101.028V35.8959H100.695C100.406 35.8959 100.029 35.5832 99.651 35.0309V35.035ZM84.7184 16.951C83.5204 17.1743 82.298 17.284 81.0512 17.284H78.8745V4.59713C79.0532 4.44281 79.2522 4.30879 79.4958 4.19914C79.7842 4.06513 80.1172 3.97578 80.4746 3.95548C80.8319 3.93517 81.2096 3.91081 81.5426 3.91081H82.5863C83.6544 3.91081 84.7184 3.97578 85.7621 4.15447C86.7855 4.30879 87.6952 4.6418 88.4709 5.08852C89.2465 5.53118 89.8719 6.15659 90.3389 6.95662C90.806 7.73229 91.0293 8.75568 91.0293 10.0024C91.0293 11.4238 90.741 12.6015 90.1846 13.5356C89.608 14.4696 88.8526 15.225 87.9185 15.7814C86.9642 16.3377 85.8961 16.7357 84.7184 16.9591V16.951Z" fill="#a3a3a3"/>
<path d="M68.3889 30.3891C68.0559 31.1648 67.6985 31.7902 67.3208 32.2328C66.9634 32.6755 66.5451 33.0329 66.0984 33.3009C65.6558 33.5689 65.1197 33.7233 64.543 33.8126C63.942 33.9019 63.2313 33.9466 62.411 33.9466H53.6999C53.4766 33.9466 53.2329 33.9466 52.9243 33.9669C52.6359 33.9872 52.3923 33.9669 52.1486 33.9466C51.9496 33.9263 51.7709 33.8573 51.6166 33.7233C51.5719 33.6786 51.4379 33.5892 51.4379 33.2562V19.814H61.814C62.3907 19.814 62.882 19.8343 63.28 19.879C63.6374 19.9237 63.9258 20.0333 64.1247 20.1917C64.3481 20.346 64.5024 20.5694 64.6121 20.8577C64.7461 21.1907 64.8354 21.6578 64.9004 22.2588L64.9207 22.5471H66.2325V13.9255H64.9207L64.9004 14.2138C64.8354 14.7905 64.7217 15.2372 64.6121 15.5458C64.5024 15.8342 64.344 16.0575 64.1247 16.1915C63.9014 16.3459 63.613 16.4352 63.2354 16.4799C62.8374 16.5245 62.346 16.5692 61.7896 16.5692H51.4135V4.81643C51.4135 4.19508 51.4785 4.01639 51.4582 3.99609C51.4785 3.99609 51.6572 3.93111 52.2582 3.93111H62.9227C64.1004 3.93111 65.0101 4.06513 65.6111 4.35347C66.1431 4.59713 66.5005 5.33219 66.6548 6.55457L66.6995 6.84291H68.0559L67.9909 0.755341H43.8396V1.93306H44.1726C45.529 1.93306 45.8823 2.17672 45.996 2.29043C46.1301 2.42445 46.329 2.8468 46.329 4.2032V33.6867C46.329 35.0431 46.1301 35.4655 45.996 35.5995C45.862 35.7335 45.4843 35.9325 44.1726 35.9325H43.8396V37.1102H68.4782V37.1305L69.9443 30.1982H68.4782L68.3889 30.3972V30.3891Z" fill="#a3a3a3"/>
<path d="M38.7062 20.7034C37.9062 19.9278 36.9721 19.3024 35.9081 18.815C35.2624 18.5023 34.5517 18.2587 33.841 18.0597C35.5061 17.548 36.8625 16.7926 37.8859 15.7936C39.1976 14.5509 39.8393 12.6828 39.8393 10.2827C39.8393 8.39427 39.4616 6.81857 38.6859 5.57181C37.9102 4.32912 36.9071 3.3504 35.6847 2.63971C34.4867 1.92902 33.0856 1.44169 31.5506 1.17365C30.0398 0.905621 28.4641 0.775665 26.9087 0.775665H14.2016V1.95338H14.5346C15.091 1.95338 15.558 1.95338 15.9113 1.99805C16.224 2.01836 16.4677 2.0874 16.6464 2.22142C16.825 2.33106 16.9347 2.53412 17.0037 2.79809C17.0931 3.1311 17.1378 3.59812 17.1378 4.19916V33.707C17.1378 34.3081 17.0931 34.7751 17.0037 35.1081C16.9388 35.3761 16.825 35.5751 16.6707 35.6848C16.492 35.7944 16.2727 35.8838 15.96 35.9081C15.6027 35.9325 15.1397 35.9528 14.5833 35.9528H14.2503V37.1305H28.0255C29.6256 37.1305 31.2257 36.9762 32.7567 36.6432C34.3568 36.2858 35.8025 35.7335 37.0655 34.9335C38.3326 34.1334 39.3763 33.0898 40.1519 31.8024C40.9276 30.4907 41.3297 28.8703 41.3297 26.9575C41.3297 25.6458 41.086 24.4681 40.619 23.4244C40.152 22.401 39.5062 21.471 38.7062 20.7156V20.7034ZM22.2629 4.41846C22.4415 4.26414 22.6405 4.13013 22.9086 4.06109C23.2659 3.95144 23.6436 3.90677 24.0416 3.8621C24.4396 3.84179 24.862 3.81742 25.264 3.84179C25.6864 3.84179 26.0397 3.8621 26.3321 3.8621C27.4001 3.8621 28.4641 3.97174 29.4875 4.1748C30.4866 4.39816 31.4003 4.73117 32.176 5.2185C32.9313 5.70583 33.5527 6.35154 34.0441 7.17188C34.5111 7.97191 34.7548 8.99531 34.7548 10.1933C34.7548 11.3914 34.5558 12.3701 34.1537 13.1701C33.7557 13.9498 33.1994 14.6159 32.509 15.1032C31.8186 15.6149 30.9739 15.9682 30.0439 16.1916C29.0896 16.4149 28.0662 16.5246 26.9981 16.5246H22.2669V4.4144L22.2629 4.41846ZM35.0147 30.4379C34.4827 31.3029 33.7273 32.0379 32.8379 32.5699C31.9283 33.1019 30.8845 33.4796 29.7271 33.6827C28.5494 33.8817 27.3717 33.9954 26.194 33.9954H25.0812C24.6833 33.9954 24.2609 33.9751 23.8589 33.9304C23.4812 33.8857 23.1238 33.7761 22.8152 33.6177C22.5471 33.4837 22.3481 33.305 22.2141 33.041H22.1938V19.8425H24.5492C25.8366 19.8425 27.1727 19.9318 28.5494 20.1105C29.9058 20.2892 31.1282 20.6222 32.1922 21.1339C33.2359 21.6456 34.1253 22.3766 34.8157 23.3106C35.5061 24.2203 35.8391 25.4874 35.8391 27.0672C35.8391 28.4236 35.5711 29.5769 35.0187 30.446L35.0147 30.4379Z" fill="#a3a3a3"/>
</svg>
