<svg width="129" height="87" viewBox="0 0 129 87" fill="none" xmlns="http://www.w3.org/2000/svg">
<path d="M34.5203 84.6213C34.0727 84.6213 33.7919 84.538 33.6866 84.3668C33.5856 84.1957 33.5286 83.8973 33.5286 83.4717L33.5505 75.4769C33.5505 75.0907 33.5505 74.7046 33.5593 74.3097C33.5637 73.9147 33.5725 73.5286 33.5813 73.1556L33.5988 72.1289L33.5418 72.1069C33.296 72.2035 33.1249 72.2605 33.0196 72.2956C32.8002 72.3746 32.5413 72.458 32.2473 72.5413C31.9533 72.6291 31.6593 72.7081 31.3697 72.7871L30.5668 72.9933V73.3136C30.7686 73.2917 30.8958 73.2785 30.9573 73.2741C31.0143 73.2653 31.0845 73.261 31.1635 73.261C31.497 73.261 31.7076 73.3399 31.791 73.4891C31.8831 73.6383 31.927 73.9147 31.927 74.3097V77.4251C31.6857 77.1838 31.4356 76.9951 31.1767 76.8547C30.7774 76.6441 30.3386 76.5431 29.8647 76.5431C28.6712 76.5431 27.6619 77.0521 26.8326 78.0701C26.0121 79.0793 25.5996 80.2948 25.5996 81.7077C25.5996 82.8398 25.9375 83.8315 26.6264 84.6959C27.3197 85.5516 28.2192 85.9816 29.325 85.9816C29.9524 85.9816 30.5009 85.8324 30.9792 85.5384C31.2425 85.3673 31.5628 85.082 31.927 84.6871V85.8894L31.9972 85.9816L33.533 85.4024C34.4413 85.0908 34.9152 84.9241 34.9547 84.9153V84.5862C34.8801 84.5994 34.8099 84.6126 34.7397 84.6169H34.5247L34.5203 84.6213ZM31.927 83.6209C31.927 83.8885 31.7734 84.1737 31.4575 84.4721C31.146 84.7749 30.7291 84.9197 30.2245 84.9197C29.2591 84.9197 28.5307 84.5072 28.0437 83.6867C27.561 82.8617 27.3197 81.9271 27.3197 80.8784C27.3197 79.8297 27.5479 78.9214 28.0042 78.1974C28.4562 77.4602 29.1012 77.1004 29.9217 77.1004C30.3517 77.1004 30.7949 77.2715 31.2425 77.6269C31.6988 77.9736 31.927 78.5703 31.927 79.4172V83.6165V83.6209Z" fill="#a3a3a3"/>
<path d="M41.9315 84.0816C41.462 84.4414 40.8828 84.6213 40.1983 84.6213C39.3514 84.6213 38.6186 84.2747 37.9999 83.5857C37.3769 82.8925 37.039 81.7911 36.9688 80.2773H43.1821C43.1821 79.1101 42.8354 78.2105 42.1465 77.5743C41.4532 76.9336 40.6459 76.6177 39.7288 76.6177C38.4826 76.6177 37.469 77.0916 36.6923 78.0482C35.9201 79.0004 35.5251 80.1324 35.5251 81.4444C35.5251 82.6555 35.8586 83.7174 36.5256 84.6433C37.1969 85.5691 38.1491 86.0342 39.3778 86.0342C40.4396 86.0342 41.3348 85.6832 42.0676 84.9767C42.8047 84.2703 43.305 83.5068 43.5726 82.6774L43.2304 82.559C42.8311 83.2172 42.3967 83.7306 41.9315 84.086V84.0816ZM37.4558 78.3158C37.8507 77.6576 38.4168 77.3285 39.1584 77.3285C39.8999 77.3285 40.444 77.6138 40.7643 78.193C40.9399 78.5089 41.0627 78.996 41.1373 79.6498H37.0083C37.096 79.1145 37.2496 78.6713 37.4558 78.3158Z" fill="#a3a3a3"/>
<path d="M58.5436 73.5242C57.6397 72.866 56.3452 72.5326 54.6471 72.5326H49.364V72.9056C50.0836 72.967 50.5444 73.1074 50.755 73.3268C50.97 73.5506 51.0797 74.0113 51.0797 74.7046V83.3839C51.0797 84.2132 50.9832 84.7442 50.7945 84.9811C50.6058 85.2093 50.1319 85.3585 49.364 85.4331V85.7929H54.9718V85.4331C54.1688 85.3717 53.651 85.2444 53.4185 85.0514C53.1903 84.8539 53.0762 84.38 53.0762 83.6209V79.9833C53.2386 79.9833 53.4887 79.9877 53.8178 80.0008C54.16 80.0096 54.4365 80.0096 54.6515 80.0096C56.1521 80.0096 57.3983 79.7024 58.4032 79.0881C59.3992 78.4738 59.8951 77.4865 59.8951 76.1219C59.8951 75.0468 59.4475 74.178 58.548 73.5198L58.5436 73.5242ZM56.275 78.8512C55.7485 79.1101 55.0245 79.2373 54.103 79.2373C53.9977 79.2373 53.8924 79.2373 53.7783 79.2286C53.6642 79.2286 53.4316 79.2022 53.0718 79.1715V73.9455C53.0718 73.6647 53.1157 73.4847 53.2078 73.4058C53.3088 73.318 53.5633 73.2785 53.9713 73.2785C54.8402 73.2785 55.5554 73.4014 56.1258 73.6515C57.1789 74.1078 57.7143 74.9503 57.7143 76.1745C57.7143 77.4778 57.2316 78.3685 56.275 78.8512Z" fill="#a3a3a3"/>
<path d="M63.5647 73.8841C63.7665 73.6822 63.8674 73.4409 63.8674 73.16C63.8674 72.8792 63.7665 72.6291 63.5647 72.436C63.3716 72.2342 63.1302 72.1333 62.8494 72.1333C62.5686 72.1333 62.3185 72.2342 62.1254 72.436C61.928 72.6423 61.8314 72.8792 61.8314 73.16C61.8314 73.4409 61.928 73.6822 62.1254 73.8841C62.3229 74.0771 62.5598 74.1736 62.8494 74.1736C63.139 74.1736 63.3672 74.0771 63.5647 73.8841Z" fill="#a3a3a3"/>
<path d="M63.848 83.7569V76.7318C63.848 76.6791 63.8392 76.6352 63.826 76.5826C63.7734 76.5826 63.6549 76.6221 63.475 76.7011C63.0231 76.8897 62.2244 77.1706 61.0836 77.5435L60.6623 77.6796V77.9867C60.987 77.8946 61.1801 77.8419 61.2503 77.8288C61.3249 77.8156 61.3907 77.8112 61.4653 77.8112C61.7769 77.8112 61.9831 77.9472 62.0796 78.2105C62.1411 78.3773 62.1674 78.6669 62.1674 79.0925V83.7613C62.1674 84.5248 62.0753 84.9943 61.891 85.1742C61.7111 85.3453 61.2679 85.4594 60.5702 85.5252V85.8016H65.3223V85.5252C64.6948 85.4725 64.2868 85.3541 64.1025 85.1654C63.927 84.9767 63.8392 84.5072 63.8392 83.7657L63.848 83.7569Z" fill="#a3a3a3"/>
<path d="M72.5463 84.0816C72.0768 84.4414 71.4976 84.6213 70.8087 84.6213C69.9662 84.6213 69.229 84.2747 68.6103 83.5857C67.9916 82.8925 67.645 81.7911 67.5791 80.2773H73.7925C73.7925 79.1101 73.4502 78.2105 72.7569 77.5743C72.0636 76.9336 71.2562 76.6177 70.3392 76.6177C69.093 76.6177 68.0794 77.0916 67.3071 78.0482C66.526 79.0004 66.1443 80.1324 66.1443 81.4444C66.1443 82.6555 66.4734 83.7174 67.1404 84.6433C67.8117 85.5691 68.7639 86.0342 69.9881 86.0342C71.05 86.0342 71.9451 85.6832 72.6779 84.9767C73.4195 84.2703 73.9197 83.5068 74.183 82.6774L73.8407 82.559C73.4414 83.2172 73.007 83.7306 72.5419 84.086L72.5463 84.0816ZM68.075 78.3158C68.4699 77.6576 69.0315 77.3285 69.7775 77.3285C70.5234 77.3285 71.0588 77.6138 71.3835 78.193C71.5546 78.5089 71.6862 78.996 71.7521 79.6498H67.6274C67.7196 79.1145 67.8687 78.6713 68.0794 78.3158H68.075Z" fill="#a3a3a3"/>
<path d="M84.0557 84.6213C83.6037 84.6213 83.3273 84.538 83.2176 84.3668C83.1167 84.1957 83.064 83.8973 83.064 83.4717L83.0859 75.4769C83.0859 75.0907 83.0859 74.7046 83.0947 74.3097C83.0991 73.9147 83.1035 73.5286 83.1123 73.1556L83.1342 72.1289L83.0772 72.1069C82.8358 72.2035 82.6647 72.2605 82.5594 72.2956C82.3356 72.3746 82.0811 72.458 81.7871 72.5413C81.4931 72.6291 81.1991 72.7081 80.9051 72.7871L80.1065 72.9933V73.3136C80.3084 73.2917 80.4356 73.2785 80.4927 73.2741C80.5541 73.2653 80.6243 73.261 80.7033 73.261C81.0368 73.261 81.243 73.3399 81.3264 73.4891C81.4185 73.6383 81.4668 73.9147 81.4668 74.3097V77.4251C81.2255 77.1838 80.9753 76.9951 80.7121 76.8547C80.3128 76.6441 79.874 76.5431 79.4001 76.5431C78.2066 76.5431 77.1929 77.0521 76.3636 78.0701C75.5431 79.0793 75.1306 80.2948 75.1306 81.7077C75.1306 82.8398 75.4729 83.8315 76.1574 84.6959C76.8463 85.5516 77.7502 85.9816 78.856 85.9816C79.4834 85.9816 80.0319 85.8324 80.5058 85.5384C80.7735 85.3673 81.0938 85.082 81.458 84.6871V85.8894L81.5238 85.9816L83.0596 85.4024C83.9679 85.0908 84.4418 84.9241 84.4813 84.9153V84.5862C84.4023 84.5994 84.3321 84.6126 84.2663 84.6169H84.0513L84.0557 84.6213ZM81.4624 83.6209C81.4624 83.8885 81.3044 84.1737 80.9929 84.4721C80.677 84.7749 80.2689 84.9197 79.7643 84.9197C78.7989 84.9197 78.0705 84.5072 77.5791 83.6867C77.0964 82.8617 76.8551 81.9271 76.8551 80.8784C76.8551 79.8297 77.0832 78.9214 77.5396 78.1974C77.9959 77.4602 78.6366 77.1004 79.4571 77.1004C79.8871 77.1004 80.3303 77.2715 80.7779 77.6269C81.2342 77.9736 81.4624 78.5703 81.4624 79.4172V83.6165V83.6209Z" fill="#a3a3a3"/>
<path d="M92.6423 84.8056C92.379 84.8056 92.2035 84.6784 92.1158 84.4239C92.0631 84.2791 92.0412 84.0202 92.0412 83.6384V79.7156C92.0412 78.8556 91.9183 78.2018 91.677 77.7498C91.2294 76.9249 90.3694 76.5168 89.1057 76.5168C88.0174 76.5168 87.1837 76.7669 86.6221 77.2672C86.0604 77.7674 85.7796 78.2413 85.7796 78.6976C85.7796 78.9346 85.8586 79.1496 86.0165 79.3426C86.1745 79.5313 86.3983 79.6278 86.6923 79.6278C86.881 79.6278 87.0433 79.584 87.1837 79.5006C87.4251 79.3602 87.5435 79.1013 87.5435 78.7371C87.5435 78.6845 87.526 78.566 87.4997 78.3817C87.469 78.193 87.447 78.057 87.447 77.9824C87.447 77.6708 87.5962 77.4339 87.899 77.254C88.1973 77.0829 88.5177 76.9995 88.8468 76.9995C89.5444 76.9995 90.0052 77.2189 90.2246 77.6577C90.3518 77.9166 90.422 78.3773 90.422 79.0443V79.878C88.6274 80.5493 87.4295 81.0803 86.8283 81.4708C85.8849 82.1026 85.411 82.8969 85.411 83.8359C85.411 84.4458 85.6172 84.946 86.0253 85.3409C86.4378 85.7315 86.9248 85.9245 87.4865 85.9245C88.0174 85.9245 88.5835 85.749 89.1759 85.398C89.5313 85.1918 89.9525 84.8714 90.4484 84.4414C90.4659 84.8407 90.5756 85.183 90.7687 85.4682C90.9705 85.7578 91.2952 85.8982 91.7384 85.8982C92.1202 85.8982 92.4888 85.7753 92.853 85.5252C93.0943 85.3629 93.3181 85.1567 93.5287 84.9022V84.3888C93.2874 84.5687 93.1206 84.6784 93.0197 84.7223C92.9188 84.7705 92.7959 84.7925 92.6467 84.7925L92.6423 84.8056ZM90.4133 83.4717C90.4133 83.849 90.2114 84.1518 89.8165 84.3932C89.426 84.6345 89.0135 84.753 88.5835 84.753C88.2719 84.753 87.9911 84.6652 87.7322 84.4765C87.3417 84.2001 87.1442 83.7613 87.1442 83.1645C87.1442 82.4317 87.6138 81.7735 88.5528 81.1943C89.0398 80.8916 89.6629 80.6151 90.4133 80.3694V83.4673V83.4717Z" fill="#a3a3a3"/>
<path d="M102.972 84.6213C102.52 84.6213 102.244 84.538 102.143 84.3668C102.038 84.1957 101.981 83.8973 101.981 83.4717L102.002 75.4769C102.002 75.0907 102.002 74.7046 102.011 74.3097C102.02 73.9147 102.024 73.5286 102.033 73.1556L102.051 72.1289L101.989 72.1069C101.748 72.2035 101.577 72.2605 101.472 72.2956C101.248 72.3746 100.993 72.458 100.699 72.5413C100.405 72.6291 100.111 72.7081 99.8173 72.7871L99.0143 72.9933V73.3136C99.2161 73.2917 99.3477 73.2785 99.4048 73.2741C99.4662 73.2653 99.532 73.261 99.611 73.261C99.9489 73.261 100.151 73.3399 100.238 73.4891C100.331 73.6383 100.375 73.9147 100.375 74.3097V77.4251C100.133 77.1838 99.8831 76.9951 99.6198 76.8547C99.2249 76.6441 98.7905 76.5431 98.3122 76.5431C97.1187 76.5431 96.1094 77.0521 95.2757 78.0701C94.4596 79.0793 94.0471 80.2948 94.0471 81.7077C94.0471 82.8398 94.3894 83.8315 95.0739 84.6959C95.7672 85.5516 96.6623 85.9816 97.7769 85.9816C98.4043 85.9816 98.9528 85.8324 99.4267 85.5384C99.6944 85.3673 100.01 85.082 100.379 84.6871V85.8894L100.449 85.9816L101.985 85.4024C102.893 85.0908 103.367 84.9241 103.402 84.9153V84.5862C103.332 84.5994 103.257 84.6126 103.187 84.6169H102.977L102.972 84.6213ZM100.379 83.6209C100.379 83.8885 100.225 84.1737 99.9094 84.4721C99.5979 84.7749 99.1898 84.9197 98.6764 84.9197C97.711 84.9197 96.987 84.5072 96.5 83.6867C96.0129 82.8617 95.776 81.9271 95.776 80.8784C95.776 79.8297 96.0041 78.9214 96.4605 78.1974C96.9168 77.4602 97.5575 77.1004 98.378 77.1004C98.808 77.1004 99.2468 77.2715 99.6988 77.6269C100.155 77.9736 100.383 78.5703 100.383 79.4172V83.6165L100.379 83.6209Z" fill="#a3a3a3"/>
<path d="M9.24538 53.0326C9.98255 53.0984 10.4564 53.2344 10.6715 53.4538C10.9962 53.7917 11.1585 54.5025 11.1585 55.6083V62.3087L3.44014 52.664H0.00438803V53.037C0.416854 53.0457 0.724009 53.0984 0.921466 53.1818C1.13209 53.2608 1.3822 53.4714 1.6718 53.818L1.94824 54.1427V62.98C1.94824 64.0375 1.83416 64.7089 1.59721 65.0029C1.36465 65.2925 0.82932 65.4768 0 65.5601V65.9243H4.70825V65.5601C3.98424 65.4811 3.51474 65.3407 3.30411 65.1213C2.98818 64.7878 2.82583 64.0726 2.82583 62.9756V55.1695L11.6938 66.1613H12.0361V55.6127C12.0361 54.564 12.1634 53.8926 12.4179 53.5986C12.6724 53.3046 13.177 53.1203 13.9449 53.0414V52.6684H9.2366V53.0414L9.24538 53.0326Z" fill="#a3a3a3"/>
<path d="M22.2328 64.9283C21.9607 64.9283 21.7852 64.801 21.7018 64.5465C21.6492 64.4061 21.6228 64.1429 21.6228 63.7655V59.8427C21.6228 58.9783 21.5 58.3245 21.2586 57.8769C20.8111 57.0564 19.951 56.6439 18.6829 56.6439C17.5947 56.6439 16.7654 56.894 16.1994 57.3986C15.6377 57.8944 15.3569 58.3727 15.3569 58.8291C15.3569 59.066 15.4359 59.281 15.5894 59.4741C15.7474 59.6628 15.9756 59.7637 16.2652 59.7637C16.4539 59.7637 16.6162 59.7154 16.7566 59.6321C16.998 59.4917 17.1208 59.2328 17.1208 58.8729C17.1208 58.8159 17.1033 58.7018 17.0726 58.5219C17.0418 58.3332 17.0199 58.1972 17.0199 58.1182C17.0199 57.8155 17.1735 57.5697 17.4719 57.3942C17.7702 57.2231 18.0906 57.1397 18.424 57.1397C19.1173 57.1397 19.5781 57.3547 19.8018 57.7935C19.9335 58.0524 19.9993 58.5175 19.9993 59.1845V60.0138C18.2046 60.6852 17.0067 61.2161 16.4056 61.611C15.4578 62.2429 14.9883 63.0327 14.9883 63.9805C14.9883 64.586 15.1945 65.0906 15.607 65.4812C16.0151 65.8761 16.5021 66.0692 17.0638 66.0692C17.6254 66.0692 18.1651 65.8936 18.7575 65.5426C19.1129 65.3364 19.5298 65.0161 20.03 64.586C20.0476 64.9853 20.1573 65.3276 20.3547 65.6128C20.5566 65.898 20.8813 66.0428 21.3201 66.0428C21.6974 66.0428 22.0704 65.92 22.4346 65.6742C22.6759 65.5119 22.9041 65.3013 23.1103 65.0468V64.5378C22.869 64.7089 22.6979 64.823 22.6013 64.8713C22.5048 64.9151 22.3776 64.9371 22.2328 64.9371V64.9283ZM19.9993 63.5988C19.9993 63.9717 19.8018 64.2789 19.4025 64.5202C19.0076 64.7615 18.5996 64.8844 18.1695 64.8844C17.8536 64.8844 17.5728 64.7879 17.3227 64.608C16.9321 64.3271 16.7347 63.8927 16.7347 63.296C16.7347 62.5588 17.2042 61.9006 18.1432 61.317C18.6347 61.0186 19.249 60.7466 20.0037 60.4965V63.5988H19.9993Z" fill="#a3a3a3"/>
<path d="M30.225 64.7922C30.6375 64.3359 31.028 63.7172 31.401 62.9317L31.1246 62.765C30.7472 63.3179 30.4049 63.7216 30.111 63.9761C29.58 64.4193 28.9789 64.643 28.2987 64.643C27.3422 64.643 26.5787 64.2525 26.0082 63.4671C25.4466 62.686 25.1658 61.804 25.1658 60.8168C25.1658 59.7417 25.4203 58.8773 25.9293 58.2323C26.447 57.5785 27.0745 57.2494 27.8205 57.2494C28.1715 57.2494 28.4523 57.324 28.6717 57.46C28.8823 57.6048 29.0271 57.8461 29.1105 58.1928L29.229 58.6667C29.308 58.9694 29.4308 59.1932 29.602 59.3512C29.7775 59.5092 29.9793 59.5837 30.2075 59.5837C30.519 59.5837 30.7516 59.4916 30.9052 59.3117C31.0544 59.123 31.1246 58.9212 31.1246 58.7062C31.1246 58.2015 30.8306 57.7452 30.2382 57.3284C29.6502 56.9027 28.9525 56.6921 28.132 56.6921C26.8288 56.6921 25.7494 57.1792 24.8937 58.1489C24.0381 59.123 23.6124 60.2814 23.6124 61.6329C23.6124 62.9844 24.003 64.0989 24.7884 64.9019C25.5694 65.7049 26.469 66.1042 27.487 66.1042C28.505 66.1042 29.4396 65.6654 30.225 64.7922Z" fill="#a3a3a3"/>
<path d="M33.757 65.2925C33.5771 65.4592 33.1383 65.5777 32.4363 65.6435V65.9155H37.1884V65.6435C36.5609 65.5908 36.1485 65.468 35.9686 65.2837C35.7887 65.0906 35.7009 64.6255 35.7009 63.8839V56.8545C35.7009 56.8062 35.6965 56.7535 35.6834 56.7097C35.6307 56.7097 35.5122 56.7492 35.3323 56.8281C34.8804 57.0212 34.0861 57.2976 32.9409 57.6706L32.5196 57.8066V58.1094C32.8487 58.0173 33.0418 57.969 33.1076 57.9558C33.1778 57.9427 33.2524 57.9339 33.3226 57.9339C33.6342 57.9339 33.8404 58.0699 33.937 58.3376C33.9984 58.4999 34.0247 58.7939 34.0247 59.2152V63.8839C34.0247 64.6474 33.937 65.1169 33.7527 65.2925H33.757Z" fill="#a3a3a3"/>
<path d="M33.687 53.2871C33.687 53.5679 33.7879 53.8093 33.981 54.0111C34.1785 54.2042 34.4154 54.3007 34.7006 54.3007C34.9858 54.3007 35.2228 54.2042 35.4159 54.0111C35.6177 53.8093 35.7186 53.5679 35.7186 53.2871C35.7186 53.0063 35.6177 52.7562 35.4159 52.5631C35.2228 52.3612 34.9815 52.2603 34.7006 52.2603C34.4198 52.2603 34.1741 52.3612 33.981 52.5631C33.7835 52.7649 33.687 53.0063 33.687 53.2871Z" fill="#a3a3a3"/>
<path d="M42.5451 56.7404C41.2419 56.7404 40.1844 57.188 39.3551 58.0919C38.5258 58.987 38.1177 60.0796 38.1177 61.3829C38.1177 62.7694 38.5521 63.9235 39.4165 64.8449C40.2853 65.7664 41.3472 66.2271 42.5978 66.2271C43.8483 66.2271 44.9672 65.7489 45.7878 64.7879C46.6083 63.8313 47.0208 62.6992 47.0208 61.4004C47.0208 59.9919 46.5952 58.8642 45.7483 58.0129C44.9058 57.1704 43.8308 56.7448 42.5407 56.7448L42.5451 56.7404ZM44.6074 64.6562C44.2169 65.3276 43.6596 65.6655 42.9225 65.6655C41.9922 65.6655 41.2594 65.1609 40.7329 64.156C40.2107 63.1556 39.9518 62.0761 39.9518 60.909C39.9518 59.4522 40.2765 58.4298 40.926 57.8374C41.3033 57.4951 41.7553 57.3284 42.2687 57.3284C43.2208 57.3284 43.9449 57.8286 44.4495 58.8247C44.9541 59.8251 45.2042 60.8914 45.2042 62.0147C45.2042 63.138 45.0067 63.9849 44.6074 64.6562Z" fill="#a3a3a3"/>
<path d="M48.9645 65.3012C48.7803 65.468 48.4555 65.5821 47.9948 65.6435V65.9155H52.2687V65.6435C51.8167 65.6303 51.492 65.547 51.2814 65.389C51.0751 65.2266 50.9698 64.9107 50.9698 64.4368V58.9607C51.3209 58.614 51.6061 58.3683 51.8299 58.2147C52.2292 57.9558 52.6197 57.8242 53.0014 57.8242C53.5631 57.8242 53.9492 58.0085 54.1599 58.3815C54.3661 58.7457 54.4714 59.2108 54.4714 59.7724V63.9497C54.4714 64.6167 54.3749 65.0467 54.1862 65.253C53.9975 65.446 53.664 65.5777 53.1857 65.6435V65.9155H57.3674V65.6435C56.9243 65.6347 56.6039 65.5338 56.4153 65.3188C56.2266 65.1125 56.1344 64.7703 56.1344 64.3008V59.7329C56.1344 58.4604 55.779 57.5741 55.0769 57.0783C54.7127 56.8238 54.3047 56.6965 53.8615 56.6965C53.313 56.6965 52.7864 56.8588 52.2774 57.1792C51.9396 57.3854 51.4701 57.7715 50.8689 58.3332V56.8939C50.8689 56.8369 50.8645 56.7886 50.8514 56.7579C50.8426 56.7228 50.8163 56.7097 50.7724 56.7097L49.8509 57.0124C48.8549 57.3371 48.2186 57.539 47.9553 57.618V57.9558C48.0475 57.9471 48.1221 57.9383 48.1791 57.9295C48.2449 57.9251 48.302 57.9207 48.3634 57.9207C48.7452 57.9207 48.9997 58.0436 49.1225 58.2937C49.2015 58.4648 49.241 58.7544 49.241 59.1757V64.134C49.241 64.7352 49.1445 65.1257 48.9602 65.3012H48.9645Z" fill="#a3a3a3"/>
<path d="M66.5082 65.038V64.529C66.2668 64.7001 66.0957 64.8142 65.9992 64.8625C65.8982 64.9064 65.7798 64.9283 65.6262 64.9283C65.3629 64.9283 65.183 64.801 65.0952 64.5465C65.047 64.4061 65.0207 64.1429 65.0207 63.7655V59.8427C65.0207 58.9783 64.9022 58.3245 64.6565 57.8769C64.2045 57.0564 63.3489 56.6439 62.0807 56.6439C60.9881 56.6439 60.1588 56.894 59.5928 57.3986C59.0355 57.8944 58.7547 58.3727 58.7547 58.8291C58.7547 59.066 58.8293 59.281 58.9872 59.4741C59.1496 59.6628 59.3734 59.7637 59.6674 59.7637C59.8561 59.7637 60.0228 59.7154 60.1588 59.6321C60.4002 59.4917 60.5186 59.2328 60.5186 58.8729C60.5186 58.8159 60.5011 58.7018 60.4704 58.5219C60.4353 58.3332 60.4177 58.1972 60.4177 58.1182C60.4177 57.8155 60.5669 57.5697 60.8653 57.3942C61.168 57.2231 61.484 57.1397 61.8175 57.1397C62.5151 57.1397 62.9759 57.3547 63.1953 57.7935C63.3225 58.0524 63.3927 58.5175 63.3927 59.1845V60.0138C61.5937 60.6852 60.4002 61.2161 59.799 61.611C58.8556 62.2429 58.3773 63.0327 58.3773 63.9805C58.3773 64.586 58.5879 65.0906 58.996 65.4812C59.4085 65.8761 59.8955 66.0692 60.4528 66.0692C61.0101 66.0692 61.5542 65.8936 62.1509 65.5426C62.502 65.3364 62.9276 65.0161 63.4234 64.586C63.441 64.9853 63.5507 65.3276 63.7438 65.6128C63.9456 65.898 64.2703 66.0428 64.7135 66.0428C65.0909 66.0428 65.4682 65.92 65.8324 65.6742C66.0738 65.5119 66.2975 65.3013 66.5082 65.0468V65.038ZM63.3971 63.5988C63.3971 63.9717 63.1953 64.2789 62.796 64.5202C62.4054 64.7615 61.9974 64.8844 61.563 64.8844C61.247 64.8844 60.9662 64.7879 60.7117 64.608C60.3212 64.3271 60.1281 63.8927 60.1281 63.296C60.1281 62.5588 60.5976 61.9006 61.5366 61.317C62.0237 61.0186 62.6424 60.7466 63.3971 60.4965V63.5988Z" fill="#a3a3a3"/>
<path d="M67.6141 53.3265C68.009 53.3265 68.2766 53.4626 68.4083 53.739C68.4785 53.9014 68.5136 54.1954 68.5136 54.6298V64.1911C68.5136 64.7308 68.4083 65.095 68.1933 65.2881C67.9739 65.468 67.5614 65.5864 66.9603 65.6479V65.9199H71.6992V65.6479C71.0805 65.5996 70.6812 65.4943 70.4838 65.3363C70.2907 65.1608 70.1898 64.7922 70.1898 64.2262V52.4929C70.1898 52.3612 70.181 52.2778 70.1678 52.2383C70.1678 52.1989 70.1371 52.1769 70.0889 52.1769C68.8515 52.5718 67.7896 52.8834 66.912 53.1203V53.4406C67.0743 53.4011 67.206 53.3705 67.3157 53.3529C67.4254 53.331 67.5263 53.3222 67.6184 53.3222L67.6141 53.3265Z" fill="#a3a3a3"/>
<path d="M90.624 54.5069V63.511C90.624 64.3534 90.5187 64.8975 90.3168 65.1257C90.1194 65.3451 89.6191 65.4899 88.8117 65.5558V65.9199H94.4283V65.5558C93.6824 65.4899 93.2041 65.3583 92.9891 65.1564C92.7697 64.9502 92.6644 64.4763 92.6644 63.7479V54.836C92.6644 54.1252 92.7697 53.66 92.9891 53.445C93.2041 53.2213 93.6824 53.0896 94.4283 53.037V52.664H90.4353L86.0035 62.7694L81.361 52.664H77.3987V53.037C78.2061 53.0765 78.7239 53.2081 78.9521 53.4275C79.1802 53.6425 79.2987 54.112 79.2987 54.836V62.9756C79.2987 64.0331 79.1802 64.7045 78.9433 64.9985C78.7107 65.2881 78.1754 65.4724 77.3505 65.5558V65.9199H82.0587V65.5558C81.3347 65.4768 80.8652 65.3364 80.659 65.117C80.3386 64.7835 80.1807 64.0682 80.1807 62.9713V54.9764L85.218 65.9155H85.4945L90.624 54.5069Z" fill="#a3a3a3"/>
<path d="M99.8774 56.7404C98.5786 56.7404 97.5167 57.188 96.6874 58.0919C95.8668 58.987 95.4543 60.0796 95.4543 61.3829C95.4543 62.7694 95.8888 63.9235 96.7576 64.8449C97.6264 65.7664 98.6883 66.2271 99.9388 66.2271C101.189 66.2271 102.308 65.7489 103.124 64.7879C103.949 63.8313 104.357 62.6992 104.357 61.4004C104.357 59.9919 103.936 58.8642 103.089 58.0129C102.238 57.1704 101.172 56.7448 99.8774 56.7448V56.7404ZM101.944 64.6562C101.554 65.3276 100.992 65.6655 100.264 65.6655C99.3289 65.6655 98.5961 65.1609 98.0696 64.156C97.5474 63.1556 97.2841 62.0761 97.2841 60.909C97.2841 59.4522 97.6132 58.4298 98.2626 57.8374C98.6444 57.4951 99.0876 57.3284 99.6053 57.3284C100.558 57.3284 101.286 57.8286 101.786 58.8247C102.291 59.8251 102.541 60.8914 102.541 62.0147C102.541 63.138 102.339 63.9849 101.944 64.6562Z" fill="#a3a3a3"/>
<path d="M113.467 64.3052V59.7373C113.467 58.4648 113.111 57.5785 112.409 57.0826C112.045 56.8281 111.641 56.7009 111.194 56.7009C110.645 56.7009 110.114 56.8632 109.61 57.1836C109.272 57.3898 108.802 57.7759 108.201 58.3376V56.8983C108.201 56.8413 108.197 56.793 108.183 56.7623C108.175 56.7272 108.148 56.714 108.1 56.714L107.183 57.0168C106.187 57.3415 105.551 57.5434 105.283 57.6223V57.9602C105.375 57.9515 105.454 57.9427 105.511 57.9339C105.577 57.9295 105.638 57.9251 105.7 57.9251C106.082 57.9251 106.341 58.048 106.463 58.2981C106.542 58.4692 106.578 58.7588 106.578 59.1801V64.1384C106.578 64.7396 106.481 65.1301 106.292 65.3056C106.112 65.4724 105.788 65.5864 105.323 65.6479V65.9199H109.601V65.6479C109.149 65.6347 108.82 65.5513 108.614 65.3934C108.403 65.231 108.298 64.9151 108.298 64.4412V58.9651C108.649 58.6184 108.934 58.3727 109.158 58.2191C109.557 57.9602 109.952 57.8286 110.334 57.8286C110.895 57.8286 111.277 58.0129 111.488 58.3858C111.698 58.75 111.799 59.2152 111.799 59.7768V63.9541C111.799 64.6211 111.703 65.0511 111.514 65.2573C111.325 65.4504 110.992 65.5821 110.518 65.6479V65.9199H114.691V65.6479C114.252 65.6391 113.932 65.5382 113.743 65.3232C113.554 65.1169 113.458 64.7747 113.458 64.3052H113.467Z" fill="#a3a3a3"/>
<path d="M119.72 64.8713C119.549 64.981 119.351 65.038 119.114 65.038C118.658 65.038 118.351 64.8098 118.197 64.3623C118.114 64.1121 118.07 63.7348 118.07 63.2389L118.092 57.6048H120.084V56.8984H118.11V54.4894C118.11 54.406 118.096 54.3534 118.079 54.3402C118.066 54.3271 118.017 54.3227 117.93 54.3227C117.192 55.3143 116.727 55.9243 116.521 56.1612C116.324 56.3894 116.003 56.6878 115.556 57.0607C115.393 57.1924 115.301 57.2757 115.271 57.3152C115.244 57.346 115.231 57.3986 115.231 57.4644C115.231 57.4952 115.24 57.5215 115.249 57.539C115.271 57.5566 115.297 57.5785 115.332 57.6005H116.398V63.5285C116.398 64.1867 116.473 64.7001 116.626 65.0731C116.894 65.762 117.421 66.0999 118.189 66.0999C118.54 66.0999 118.908 66.0033 119.286 65.8147C119.659 65.6304 120.023 65.3057 120.361 64.8493L120.571 64.5553L120.317 64.3403C120.093 64.586 119.9 64.7572 119.72 64.8713Z" fill="#a3a3a3"/>
<path d="M128.646 62.6817C128.247 63.3399 127.812 63.8533 127.347 64.2087C126.878 64.5641 126.298 64.744 125.61 64.744C124.763 64.744 124.034 64.4018 123.407 63.7085C122.788 63.0152 122.45 61.9138 122.38 60.4H128.598C128.598 59.2328 128.255 58.3332 127.562 57.697C126.869 57.0563 126.062 56.7404 125.144 56.7404C123.898 56.7404 122.885 57.2187 122.112 58.1665C121.336 59.1231 120.945 60.2508 120.945 61.5628C120.945 62.7694 121.279 63.8357 121.946 64.7616C122.617 65.6874 123.569 66.1525 124.793 66.1525C125.86 66.1525 126.759 65.8015 127.488 65.095C128.225 64.3886 128.725 63.6251 128.997 62.7958L128.655 62.6773L128.646 62.6817ZM122.876 58.4429C123.266 57.7847 123.832 57.4513 124.578 57.4513C125.329 57.4513 125.864 57.7409 126.184 58.3157C126.36 58.6316 126.487 59.1231 126.553 59.7725H122.428C122.52 59.2371 122.67 58.794 122.876 58.4429Z" fill="#a3a3a3"/>
<path d="M40.0049 42.1242L41.6548 42.4094V35.4326L39.3073 35.3711V36.4023L40.0049 36.433V42.1242Z" fill="#a3a3a3"/>
<path d="M40.0049 28.3899L41.6548 28.2056V22.1239L39.3073 22.6944V23.686L40.0049 23.5281V28.3899Z" fill="#a3a3a3"/>
<path d="M40.0049 21.6149C40.5622 21.4745 41.1107 21.3341 41.6548 21.1937V14.7873L39.3073 15.7044V16.7487L40.0049 16.4898V21.6149Z" fill="#a3a3a3"/>
<path d="M41.6548 12.9313L41.2379 13.1068L40.6061 12.2029L40.0313 13.6158L39.3073 13.9229V14.7742L41.6548 13.822V12.9313Z" fill="#a3a3a3"/>
<path d="M40.0049 34.5331L41.6548 34.5594V29.1227L39.3073 29.3597V30.3558L40.0049 30.2943V34.5331Z" fill="#a3a3a3"/>
<path d="M32.721 40.856L34.4191 41.15V35.2395L32.1725 35.178V36.0863L32.721 36.1127V40.856Z" fill="#a3a3a3"/>
<path d="M32.721 23.4667C33.2914 23.3219 33.8574 23.1771 34.4191 23.0323V17.6088L32.1725 18.4864V19.3991L32.721 19.1972V23.4667Z" fill="#a3a3a3"/>
<path d="M34.4191 15.9809L33.9715 16.1696L33.3528 15.2832L32.7868 16.6698L32.1725 16.9287V17.6527L34.4191 16.7444V15.9809Z" fill="#a3a3a3"/>
<path d="M32.721 29.2149L34.4191 29.0218V23.8747L32.1725 24.4145V25.2964L32.721 25.1736V29.2149Z" fill="#a3a3a3"/>
<path d="M32.721 34.4234L34.4191 34.4453V29.8511L32.1725 30.0749V30.9613L32.721 30.9174V34.4234Z" fill="#a3a3a3"/>
<path d="M36.3624 41.4879L38.0386 41.7819V35.336L35.9412 35.279V36.2531L36.3624 36.2707V41.4879Z" fill="#a3a3a3"/>
<path d="M36.364 22.5408C36.9257 22.396 37.4873 22.2556 38.0402 22.1151V16.2002L35.9471 17.0163V17.9993L36.3684 17.8457V22.5408H36.364Z" fill="#a3a3a3"/>
<path d="M38.0386 14.4539L37.6042 14.6381L36.9811 13.743L36.4107 15.1428L35.9412 15.3402V16.13L38.0386 15.2832V14.4539Z" fill="#a3a3a3"/>
<path d="M36.3624 34.476L38.0386 34.5023V29.4869L35.9412 29.6975V30.6409L36.3624 30.6058V34.476Z" fill="#a3a3a3"/>
<path d="M36.3624 28.8024L38.0386 28.6137V22.9971L35.9412 23.5061V24.4452L36.3624 24.353V28.8024Z" fill="#a3a3a3"/>
<path d="M22.4705 19.9037L21.9264 21.2464L21.3911 21.4702V22.0055L23.5675 21.1323V20.5575L23.0717 20.7637L22.4705 19.9037Z" fill="#a3a3a3"/>
<path d="M21.3911 35.6124L21.7773 35.6256V38.9517L23.5675 39.2632V34.9411L21.3911 34.8841V35.6124Z" fill="#a3a3a3"/>
<path d="M21.3911 31.874L21.7773 31.8432V34.2522L23.5675 34.2785V30.9349L21.3911 31.1543V31.874Z" fill="#a3a3a3"/>
<path d="M21.3911 23.4053L21.7729 23.2649V26.275C22.3696 26.1214 22.9664 25.9678 23.5631 25.8142V21.8475L21.3911 22.6944V23.4096V23.4053Z" fill="#a3a3a3"/>
<path d="M21.3911 27.7449L21.7773 27.6571V30.4523L23.5675 30.2504V26.4944L21.3911 27.0209V27.7449Z" fill="#a3a3a3"/>
<path d="M25.4252 25.3359C26.0132 25.1868 26.6012 25.0332 27.1848 24.884V20.4346L25.0347 21.2727V22.0538L25.4252 21.909V25.3359Z" fill="#a3a3a3"/>
<path d="M25.4252 39.5836L27.1848 39.8907V35.042L25.0347 34.9806V35.7704L25.4252 35.788V39.5836Z" fill="#a3a3a3"/>
<path d="M27.1848 19.0305L26.7065 19.2324L26.1009 18.3635L25.5481 19.7194L25.0347 19.9344V20.54L27.1848 19.6668V19.0305Z" fill="#a3a3a3"/>
<path d="M25.4252 34.3092L27.1848 34.3356V30.5751L25.0347 30.7901V31.5668L25.4252 31.5317V34.3092Z" fill="#a3a3a3"/>
<path d="M25.4252 30.0398L27.1848 29.8423V25.6212L25.0347 26.1389V26.92L25.4252 26.8278V30.0398Z" fill="#a3a3a3"/>
<path d="M29.06 24.4057C29.6392 24.2565 30.2228 24.1073 30.7976 23.9625V19.0261L28.5334 19.9125V20.7593L29.06 20.5619V24.4057Z" fill="#a3a3a3"/>
<path d="M29.06 29.6273L30.7976 29.4343V24.748L28.5334 25.2964V26.1257L29.06 26.0073V29.6273Z" fill="#a3a3a3"/>
<path d="M30.7976 17.5079L30.3413 17.701L29.727 16.8234L29.1653 18.1968L28.5334 18.4601V19.1227L30.7976 18.2056V17.5079Z" fill="#a3a3a3"/>
<path d="M29.06 40.2198L30.7976 40.5182V35.1386L28.5334 35.0771V35.9284L29.06 35.9503V40.2198Z" fill="#a3a3a3"/>
<path d="M29.06 34.3663L30.7976 34.3926V30.2109L28.5334 30.4391V31.2684L29.06 31.2245V34.3663Z" fill="#a3a3a3"/>
<path d="M54.649 26.7357L56.1277 26.5689V18.6268L54.1093 19.1138V20.3293L54.649 20.2064V26.7357Z" fill="#a3a3a3"/>
<path d="M56.1277 6.832L55.7723 6.98117L55.1141 6.04218L54.5129 7.51212L54.1093 7.68326V8.79339L56.1277 7.97724V6.832Z" fill="#a3a3a3"/>
<path d="M54.649 34.7569L56.1277 34.7788V27.6791L54.1093 27.881V29.0964L54.649 29.0526V34.7569Z" fill="#a3a3a3"/>
<path d="M54.6474 17.9159C55.1651 17.7843 55.6566 17.6614 56.1261 17.543V9.14447L54.1033 9.93429V11.2463L54.643 11.0444V17.9159H54.6474Z" fill="#a3a3a3"/>
<path d="M54.649 44.6692L56.1277 44.9281V35.8275L54.1093 35.7748V37.0517L54.649 37.0781V44.6692Z" fill="#a3a3a3"/>
<path d="M50.9839 34.6998L52.5109 34.7261V28.0389L50.4091 28.2496V29.4123L50.9839 29.3641V34.6998Z" fill="#a3a3a3"/>
<path d="M50.9839 27.1525L52.5109 26.977V19.5L50.4091 20.009V21.163L50.9839 21.0357V27.1525Z" fill="#a3a3a3"/>
<path d="M50.9824 18.8374C51.5046 18.7058 52.018 18.5785 52.5094 18.4513V10.553L50.4032 11.3736V12.6197L50.978 12.4091V18.833L50.9824 18.8374Z" fill="#a3a3a3"/>
<path d="M52.5109 8.35465L52.1379 8.51263L51.4841 7.58237L50.8917 9.03916L50.4091 9.24541V10.2897L52.5109 9.43848V8.35465Z" fill="#a3a3a3"/>
<path d="M50.9839 44.0329L52.5109 44.3006V35.731L50.4091 35.6739V36.8894L50.9839 36.9157V44.0329Z" fill="#a3a3a3"/>
<path d="M58.311 26.3188L59.7459 26.1564V17.7535L57.8064 18.223V19.4911L58.311 19.3771V26.3188Z" fill="#a3a3a3"/>
<path d="M59.7459 5.30501L59.4036 5.4498L58.7366 4.50201L58.1355 5.98514L57.8064 6.12556V7.30152L59.7459 6.51606V5.30501Z" fill="#a3a3a3"/>
<path d="M58.311 45.3054L59.7459 45.5599V35.9284L57.8064 35.8758V37.2141L58.311 37.236V45.3054Z" fill="#a3a3a3"/>
<path d="M58.311 16.9945C58.8376 16.8628 59.3159 16.74 59.7459 16.6346V7.73593L57.8064 8.49064V9.86846L58.311 9.67978V16.9945Z" fill="#a3a3a3"/>
<path d="M58.311 34.8139L59.7459 34.8358V27.3149L57.8064 27.508V28.7849L58.311 28.741V34.8139Z" fill="#a3a3a3"/>
<path d="M47.3189 27.565L48.8942 27.3851V20.3776L46.709 20.9041V22.0055L47.3189 21.8651V27.565Z" fill="#a3a3a3"/>
<path d="M47.3189 19.7633C47.8498 19.6272 48.3764 19.4956 48.8942 19.364V11.9659L46.709 12.8172V13.9975L47.3189 13.765V19.7589V19.7633Z" fill="#a3a3a3"/>
<path d="M47.3189 34.6471L48.8942 34.6691V28.4031L46.709 28.6225V29.7282L47.3189 29.6756V34.6471Z" fill="#a3a3a3"/>
<path d="M48.8942 9.88169L48.5036 10.044L47.8586 9.12256L47.2706 10.5662L46.709 10.8031V11.7816L48.8942 10.8997V9.88169Z" fill="#a3a3a3"/>
<path d="M48.8942 43.6688V35.6301L46.709 35.573V36.7271L47.3189 36.7534V43.3967L48.8942 43.6688Z" fill="#a3a3a3"/>
<path d="M43.6553 34.5901L45.2744 34.6121V28.7629L43.0059 28.9911V30.0398L43.6553 29.9872V34.5901Z" fill="#a3a3a3"/>
<path d="M45.2744 11.4043L44.8707 11.5754L44.2301 10.6627L43.6509 12.0888L43.0059 12.3608V13.2779L45.2744 12.3608V11.4043Z" fill="#a3a3a3"/>
<path d="M43.6553 27.9774L45.2744 27.7932V21.2507L43.0059 21.7992V22.8436L43.6553 22.6987V27.9774Z" fill="#a3a3a3"/>
<path d="M43.6553 20.6891C44.1994 20.5531 44.7435 20.4126 45.2744 20.281V13.3788L43.0059 14.2608V15.3709L43.6553 15.1296V20.6891Z" fill="#a3a3a3"/>
<path d="M43.6553 42.7561L45.2744 43.0413V35.5335L43.0059 35.4721V36.5647L43.6553 36.5954V42.7561Z" fill="#a3a3a3"/>
<path d="M99.7328 32.0144L100.286 32.0671V31.3123L98.0961 31.0666V35.0157L99.7328 35.0245V32.0144Z" fill="#a3a3a3"/>
<path d="M99.7328 36.5734L100.286 36.5559V35.7222L98.0961 35.7353V40.8297L99.7328 40.5928V36.5734Z" fill="#a3a3a3"/>
<path d="M99.7328 21.9353L100.286 22.1371V21.2946L98.0961 20.4609V25.1604L99.7328 25.5816V21.9353Z" fill="#a3a3a3"/>
<path d="M100.286 19.9036L99.8337 19.7194L99.2896 18.3898L98.6884 19.2498L98.0961 19.0041V19.6623L100.286 20.5267V19.9036Z" fill="#a3a3a3"/>
<path d="M99.7328 27.0736L100.286 27.2052V26.4154L98.0961 25.8844V30.3119L99.7328 30.5137V27.0736Z" fill="#a3a3a3"/>
<path d="M88.5929 24.533L89.3389 24.6997V23.7519L86.9957 23.1815V42.427L88.5929 42.1988V24.533Z" fill="#a3a3a3"/>
<path d="M89.3389 15.4016L88.8343 15.191L88.2682 13.8088L87.6451 14.704L86.9957 14.4363V15.2876L89.3389 16.209V15.4016Z" fill="#a3a3a3"/>
<path d="M89.3389 21.8826L88.5929 21.6808V17.8545L89.3389 18.1309V17.1217L86.9957 16.2266V22.3302L89.3389 22.9269V21.8826Z" fill="#a3a3a3"/>
<path d="M69.9652 20.2591L70.5005 20.3864V19.1665L68.4952 18.6795V26.6523L69.9652 26.8366V20.2591Z" fill="#a3a3a3"/>
<path d="M69.9652 29.1534L70.5005 29.2061V27.9906L68.4952 27.7668V34.9016L69.9652 34.906V29.1534Z" fill="#a3a3a3"/>
<path d="M70.5005 7.65258L70.2241 7.53849L69.6273 6.0773L68.9691 7.02072L68.4952 6.82326V7.99046L70.5005 8.78468V7.65258Z" fill="#a3a3a3"/>
<path d="M69.9652 11.0576L70.5005 11.2507V9.92991L68.4952 9.16641V17.6088L69.9652 17.9861V11.0576Z" fill="#a3a3a3"/>
<path d="M69.9652 37.236L70.5005 37.2229V35.9328L68.4952 35.9503V45.0904L69.9652 44.8798V37.236Z" fill="#a3a3a3"/>
<path d="M96.0209 26.2267L96.7098 26.3846V25.5465L94.3929 24.9805V29.8555L96.0209 30.0529V26.2267Z" fill="#a3a3a3"/>
<path d="M96.0209 20.5838L96.7098 20.8339V19.9343L94.3929 19.048V24.217L96.0209 24.6338V20.5838Z" fill="#a3a3a3"/>
<path d="M96.0209 31.6589L96.7098 31.7247V30.913L94.3929 30.6585V35.0025L96.0209 35.0113V31.6589Z" fill="#a3a3a3"/>
<path d="M96.0209 36.6524L96.7098 36.6348V35.7441L94.3929 35.7616V41.365L96.0209 41.1281V36.6524Z" fill="#a3a3a3"/>
<path d="M96.7098 18.4337L96.2008 18.2275L95.6567 16.8892L95.0555 17.7536L94.3929 17.4815V18.2055L96.7098 19.1182V18.4337Z" fill="#a3a3a3"/>
<path d="M103.99 21.4307L103.516 21.2332L102.981 19.9212L102.384 20.7681L101.801 20.5267V21.1235L103.99 21.9923V21.4307Z" fill="#a3a3a3"/>
<path d="M103.442 23.2824L103.99 23.4886V22.712L101.801 21.8738V26.1082L103.442 26.5251V23.2824Z" fill="#a3a3a3"/>
<path d="M103.442 32.3742L103.99 32.4268V31.7248L101.801 31.4834V35.0333L103.442 35.0376V32.3742Z" fill="#a3a3a3"/>
<path d="M103.442 27.9248L103.99 28.0521V27.3193L101.801 26.784V30.7682L103.442 30.9745V27.9248Z" fill="#a3a3a3"/>
<path d="M103.442 36.4901L103.99 36.4769V35.6915L101.801 35.709V40.2988L103.442 40.0619V36.4901Z" fill="#a3a3a3"/>
<path d="M107.135 28.7717L107.6 28.877V28.1969L105.498 27.6835V31.2245L107.135 31.4308V28.7717Z" fill="#a3a3a3"/>
<path d="M107.135 24.6427L107.6 24.8138V24.0898L105.498 23.2868V27.0517L107.135 27.4685V24.6427Z" fill="#a3a3a3"/>
<path d="M107.6 22.9138L107.091 22.7032L106.56 21.4044L105.972 22.2469L105.498 22.0494V22.5847L107.6 23.414V22.9138Z" fill="#a3a3a3"/>
<path d="M107.135 32.7252L107.6 32.7735V32.1284L105.498 31.8959V35.0464L107.135 35.0552V32.7252Z" fill="#a3a3a3"/>
<path d="M107.135 36.4024L107.6 36.3936V35.6652L105.498 35.6827V39.7679L107.135 39.531V36.4024Z" fill="#a3a3a3"/>
<path d="M93.1077 16.9506L92.5724 16.7312L92.0195 15.3665L91.4008 16.2485L90.6943 15.9589V16.7443L93.1077 17.6965V16.9506Z" fill="#a3a3a3"/>
<path d="M91.6334 41.7599L93.1077 41.5493V24.6689L90.6943 24.081V25.0068L91.6334 25.2218V41.7599Z" fill="#a3a3a3"/>
<path d="M93.1077 18.561L90.6943 17.6395V18.6355L91.6334 18.9778V22.4969L90.6943 22.2468V23.2736L93.1077 23.8879V18.561Z" fill="#a3a3a3"/>
<path d="M62.2212 5.51564H62.2256L63.0417 5.83595V3.7824L62.6073 3.08034L62.2256 0L61.8394 3.07595L61.405 3.7824V5.84473L62.2212 5.51564Z" fill="#a3a3a3"/>
<path d="M63.036 17.3543L62.2242 17.1525L61.4081 17.3543V25.9722L62.2242 25.88L63.036 25.981V17.3543Z" fill="#a3a3a3"/>
<path d="M63.036 7.31906V7.08212L62.2199 6.77057L61.4081 7.08651V16.2134C61.9083 16.0862 62.1891 16.0159 62.2242 16.0072L63.036 16.2134V7.31467V7.31906Z" fill="#a3a3a3"/>
<path d="M63.036 27.1569L62.2199 27.0691L61.4081 27.1525V34.8621L62.2242 34.8752L63.036 34.8796V27.1569Z" fill="#a3a3a3"/>
<path d="M62.2199 35.9942L61.4081 35.9723V45.8451L62.2374 45.99L63.036 45.8759V35.9899L62.2242 35.9942H62.2199Z" fill="#a3a3a3"/>
<path d="M72.1938 18.5566L73.6901 18.9383V12.4179L74.2693 12.6329V11.3691L72.1938 10.5793V18.5566Z" fill="#a3a3a3"/>
<path d="M72.1938 34.9148L73.6901 34.9236V29.5088L74.2693 29.5659V28.4075L72.1938 28.1793V34.9148Z" fill="#a3a3a3"/>
<path d="M73.3215 7.60873L72.6677 8.54334L72.1938 8.35027V9.45165L74.2693 10.2678V9.20153L73.9139 9.05675L73.3215 7.60873Z" fill="#a3a3a3"/>
<path d="M72.1938 27.113L73.6901 27.2929V21.1147L74.2693 21.242V20.0879L72.1938 19.5833V27.113Z" fill="#a3a3a3"/>
<path d="M72.1938 44.5595L73.6901 44.3401V37.1527L74.2693 37.1395V35.9065L72.1938 35.9241V44.5595Z" fill="#a3a3a3"/>
<path d="M66.736 6.09929L66.442 5.98081L65.8408 4.51083L65.1782 5.45864L64.7921 5.30508V6.5293L66.736 7.29719V6.09929Z" fill="#a3a3a3"/>
<path d="M66.2314 37.3237L66.736 37.3106V35.9635L64.7921 35.9767V45.6213L66.2314 45.4151V37.3237Z" fill="#a3a3a3"/>
<path d="M66.2314 9.69293L66.736 9.87722V8.49501L64.7921 7.75345V16.6653L66.2314 17.0295V9.69293Z" fill="#a3a3a3"/>
<path d="M66.2314 19.4035L66.736 19.5219V18.2494L64.7921 17.7799V26.196L66.2314 26.3715V19.4035Z" fill="#a3a3a3"/>
<path d="M66.2314 28.7981L66.736 28.8463V27.5694L64.7921 27.3544V34.8885L66.2314 34.8929V28.7981Z" fill="#a3a3a3"/>
<path d="M81.1548 30.2285L81.8042 30.2899V29.25L79.597 29.0042V34.9455L81.1548 34.9499V30.2285Z" fill="#a3a3a3"/>
<path d="M81.1548 15.1428L81.8042 15.3798V14.2433L79.597 13.4008V20.4434L81.1548 20.8383V15.1428Z" fill="#a3a3a3"/>
<path d="M81.1548 36.9903L81.8042 36.9727V35.8538L79.597 35.8713V43.4932L81.1548 43.2694V36.9903Z" fill="#a3a3a3"/>
<path d="M81.1548 22.8216L81.8042 22.9708V21.9177L79.597 21.3824V28.0213L81.1548 28.2144V22.8216Z" fill="#a3a3a3"/>
<path d="M81.8042 12.2994L81.3522 12.1151L80.7774 10.7022L80.1368 11.6149L79.597 11.3955V12.3696L81.8042 13.2384V12.2994Z" fill="#a3a3a3"/>
<path d="M84.8753 23.6773L85.573 23.8353V22.8348L83.2957 22.282V28.4821L84.8753 28.6752V23.6773Z" fill="#a3a3a3"/>
<path d="M84.8753 16.5074L85.573 16.7575V15.6825L83.2957 14.8137V21.3868L84.8753 21.7861V16.5074Z" fill="#a3a3a3"/>
<path d="M84.8753 30.5883L85.573 30.6541V29.6713L83.2957 29.4167V34.9587L84.8753 34.9631V30.5883Z" fill="#a3a3a3"/>
<path d="M84.8753 36.9025L85.573 36.8894V35.8275L83.2957 35.8406V42.9622L84.8753 42.7341V36.9025Z" fill="#a3a3a3"/>
<path d="M85.573 13.8527L85.1517 13.6815L84.5769 12.2686L83.9407 13.1813L83.2957 12.9137V13.8264L85.573 14.7259V13.8527Z" fill="#a3a3a3"/>
<path d="M78.0396 10.7504L77.6403 10.5881L77.0611 9.17078L76.4205 10.0878L75.8939 9.87284V10.9084L78.0396 11.7509V10.7504Z" fill="#a3a3a3"/>
<path d="M77.4209 37.0692L78.0396 37.0561V35.8801L75.8939 35.8977V44.0241L77.4209 43.8047V37.0692Z" fill="#a3a3a3"/>
<path d="M77.4209 13.7825L78.0396 14.0107V12.804L75.8939 11.9922V19.4956L77.4209 19.8861V13.7825Z" fill="#a3a3a3"/>
<path d="M77.4209 21.966L78.0396 22.1064V21.0006L75.8939 20.4828V27.5694L77.4209 27.7581V21.966Z" fill="#a3a3a3"/>
<path d="M77.4209 29.8686L78.0396 29.93V28.8331L75.8939 28.5917V34.9279L77.4209 34.9367V29.8686Z" fill="#a3a3a3"/>
</svg>
