<svg width="228" height="51" viewBox="0 0 228 51" fill="none" xmlns="http://www.w3.org/2000/svg">
<path d="M72.0474 20.2C70.8583 20.2236 69.6881 19.931 68.6548 19.3459C68.5179 18.1993 68.2207 17.0763 67.7724 16.0099H66.6494C65.9464 17.4396 65.7057 19.0534 65.9558 20.6246C67.763 21.6438 69.8108 22.1487 71.8822 22.0921C76.2374 22.0921 78.7193 19.9829 78.7193 16.3308C78.7193 13.6365 77.3321 11.9284 74.2085 10.7818L73.4346 10.4893C72.6089 10.1967 72.1276 10.008 71.3255 9.66352C69.8297 9.10202 69.1361 8.22438 69.1361 6.99756C69.1361 5.28946 70.3629 4.3316 72.5806 4.3316C73.4818 4.32217 74.383 4.43541 75.2512 4.68077C75.4589 5.6575 75.7845 6.60592 76.2138 7.50716H77.3085V7.37504C77.9597 5.95477 78.1295 4.36463 77.7898 2.84055C76.2233 2.49138 74.6142 2.33095 73.01 2.35926C68.8152 2.35926 66.3851 4.19948 66.3851 7.37504C66.371 8.40368 66.6494 9.40872 67.1968 10.2816C67.7394 11.1546 68.5274 11.8482 69.4569 12.2823C70.1836 12.6551 70.9291 12.9759 71.6982 13.2449L73.2459 13.83C74.9021 14.4717 75.9166 15.2455 75.9166 17.1376H75.7561C75.7561 19.0298 74.3122 20.2047 72.0426 20.2047L72.0474 20.2Z" fill="#a3a3a3"/>
<path d="M93.5728 20.6529C93.5209 19.7423 93.3322 18.841 93.0113 17.987V17.8548H92.0252C91.6996 18.6287 91.459 19.4308 91.3032 20.2566H86.4149V14.3584H90.1519C90.4397 14.3867 90.7323 14.3301 90.9918 14.1933C91.2513 14.0564 91.459 13.8441 91.5958 13.5893V12.6031H86.4149V7.58737H91.2466C91.4165 8.35648 91.6571 9.10673 91.9686 9.82866H92.9547V9.69654C93.2756 8.84249 93.4643 7.94125 93.5162 7.03058C93.5304 6.64838 93.4785 6.2709 93.3558 5.91229H81.7671V6.10103C81.7671 7.16742 82.2767 7.37975 83.8244 7.64871V20.2141C82.2767 20.5067 81.7671 20.719 81.7671 21.7618V21.8939H93.3558C93.4973 21.5023 93.5728 21.087 93.5681 20.6671L93.5728 20.6529Z" fill="#a3a3a3"/>
<path d="M108.125 14.198L107.965 14.0659C107.049 14.0989 106.148 14.2782 105.294 14.5991V15.5617C106.002 15.8023 106.738 15.9533 107.483 16.0147V19.8838C106.544 20.1858 105.558 20.3227 104.572 20.2849C101.901 20.2849 99.0987 18.5485 99.0987 13.6412C99.0987 9.82396 101.26 7.29012 104.44 7.29012C105.341 7.26653 106.238 7.36562 107.111 7.58267C107.248 8.5075 107.516 9.40401 107.913 10.2486H108.875V10.1165C109.277 9.23415 109.503 8.28101 109.541 7.31371C109.541 6.89848 109.484 6.48797 109.38 6.0869C108.002 5.79435 106.596 5.66223 105.19 5.68583C104.029 5.60561 102.864 5.77076 101.769 6.17655C100.675 6.58234 99.6838 7.21462 98.8533 8.03092C98.0229 8.84723 97.3811 9.8334 96.9612 10.9187C96.5412 12.0039 96.3619 13.1694 96.428 14.3301C96.3525 15.3918 96.5129 16.4629 96.8904 17.4585C97.2679 18.4541 97.8577 19.3601 98.6221 20.1056C99.3818 20.8511 100.297 21.4268 101.302 21.7901C102.307 22.1534 103.378 22.2903 104.44 22.2006C106.474 22.295 108.47 21.658 110.074 20.4123V14.8114C109.805 14.5849 109.494 14.4151 109.159 14.3113C108.824 14.2075 108.474 14.1697 108.12 14.198H108.125Z" fill="#a3a3a3"/>
<path d="M123.427 7.07306H123.559C124.29 7.29483 125.041 7.44582 125.805 7.52604V15.3163C125.805 18.5721 124.47 20.2236 121.771 20.2236C119.072 20.2236 117.392 18.7042 117.392 15.3682V7.57794C118.161 7.49773 118.921 7.34674 119.662 7.12497V5.86984H112.612V6.05858C112.612 7.10137 113.174 7.31371 114.75 7.57794V15.5805C114.613 16.4912 114.693 17.4208 114.986 18.2937C115.273 19.1666 115.764 19.964 116.415 20.6152C117.066 21.2663 117.864 21.7571 118.737 22.0449C119.61 22.3327 120.544 22.4129 121.455 22.2808C122.323 22.3139 123.191 22.1581 123.993 21.8231C124.795 21.4928 125.522 20.9927 126.117 20.3557C126.711 19.7234 127.164 18.9684 127.442 18.1427C127.721 17.317 127.82 16.444 127.73 15.5805V7.57794C129.306 7.30899 129.868 7.09665 129.868 6.05858V5.86984H123.271L123.432 7.06835L123.427 7.07306Z" fill="#a3a3a3"/>
<path d="M147.194 20.6812C145.99 20.1056 144.995 19.176 144.334 18.0153L141.984 14.5755C142.876 14.231 143.65 13.6318 144.202 12.8579C144.759 12.0794 145.07 11.1545 145.108 10.2014C145.108 7.42692 143.211 5.87924 139.767 5.87924H132.665V6.09157C132.665 7.15796 133.17 7.37029 134.746 7.63925V20.3651C133.142 20.6576 132.585 20.87 132.585 21.8844H139.474V20.4453C138.79 20.2518 138.096 20.1008 137.393 19.9923V14.868C138.12 14.9482 138.856 14.9482 139.583 14.868L142.683 19.4308C143.99 21.3512 144.764 21.9411 145.967 21.9411C146.476 21.9411 146.972 21.8042 147.411 21.54V20.5774H147.279L147.198 20.6859L147.194 20.6812ZM140.342 13.2118C139.809 13.4006 139.238 13.4713 138.677 13.4241H137.313V7.4222H139.182C141.371 7.4222 142.466 8.40837 142.466 10.3288C142.484 11.0979 142.239 11.8529 141.772 12.4616V12.3294C141.362 12.7211 140.875 13.0231 140.342 13.2118Z" fill="#a3a3a3"/>
<path d="M164.604 13.7403L164.713 13.7922C164.798 12.74 164.656 11.6877 164.302 10.6969C163.948 9.70597 163.382 8.80002 162.651 8.04506C161.92 7.2901 161.032 6.69556 160.051 6.30865C159.07 5.92173 158.022 5.74242 156.965 5.79433C155.875 5.79433 154.795 6.01138 153.789 6.44548C152.784 6.87486 151.883 7.50714 151.133 8.29985C150.383 9.09257 149.802 10.0268 149.43 11.0507C149.052 12.0747 148.892 13.1646 148.953 14.2546C148.863 15.2974 148.991 16.3449 149.34 17.3358C149.684 18.322 150.241 19.2279 150.963 19.9829C151.685 20.7379 152.563 21.3371 153.535 21.7287C154.507 22.1204 155.55 22.3044 156.597 22.2619C157.692 22.2619 158.777 22.0402 159.787 21.6061C160.792 21.172 161.702 20.535 162.453 19.7375C163.203 18.9401 163.783 17.9964 164.156 16.9678C164.529 15.9391 164.685 14.8397 164.614 13.7497L164.604 13.7403ZM156.861 20.4925C153.79 20.4925 151.789 17.902 151.789 14.0093C151.789 10.1165 153.738 7.44581 156.838 7.44581C159.938 7.44581 161.938 9.95605 161.938 13.8771C161.938 17.7982 159.933 20.4925 156.866 20.4925H156.861Z" fill="#a3a3a3"/>
<path d="M174.783 12.8107L174.595 12.7588L173.953 12.5182C173.288 12.2775 172.887 12.1454 172.245 11.8529C170.99 11.2914 170.457 10.5977 170.457 9.58327C170.457 8.16771 171.443 7.39388 173.127 7.39388C173.83 7.37972 174.533 7.46937 175.208 7.66283C175.387 8.46498 175.656 9.24353 176.01 9.98434H177.001C177.544 8.79999 177.695 7.46937 177.426 6.19537C176.124 5.94057 174.802 5.81789 173.472 5.82261C169.947 5.82261 167.946 7.34197 167.946 9.98434C167.928 10.8573 168.168 11.716 168.645 12.4521C169.121 13.1835 169.805 13.7592 170.612 14.0942C171.216 14.4009 171.844 14.6651 172.481 14.8963L173.764 15.3776C175.1 15.9108 175.925 16.5525 175.925 18.0436C175.925 19.5346 174.751 20.5538 172.882 20.5538C171.943 20.5538 171.023 20.3037 170.211 19.8319C170.093 18.9118 169.848 18.0153 169.489 17.1659H168.498C167.913 18.3739 167.71 19.7328 167.913 21.0634C169.428 21.8797 171.131 22.2949 172.854 22.2619C176.487 22.2619 178.568 20.5255 178.568 17.4585C178.568 15.2172 177.393 13.778 174.774 12.8154L174.783 12.8107Z" fill="#a3a3a3"/>
<path d="M88.02 45.9489V45.897L86.9773 30.3967C88.8458 30.0239 89.3271 29.7314 89.3271 28.5281V28.3394H84.3868C82.9996 28.3394 82.6221 28.7641 81.7161 31.4347L78.1631 41.8155L74.6667 31.1705C73.7843 28.5045 73.4115 28.2073 71.6232 28.2073H66.9755V28.396C66.9755 29.5945 67.4567 29.8918 69.3253 30.2645L68.1504 45.9017C66.0412 46.2745 65.4797 46.5434 65.4797 47.7419V47.9307H73.1426V46.5434H73.0105C72.1753 46.3075 71.3307 46.1188 70.4719 45.9819L71.5949 31.5999L76.403 45.4487V45.5808H77.7667C79.1304 45.5808 79.5031 44.5664 80.3053 42.2968C81.6925 38.2955 82.9759 34.6905 84.0187 31.6235L85.0616 46.0338C84.2075 46.1754 83.3582 46.3594 82.523 46.5953H82.3909V47.9826H90.6954V47.7938C90.6954 46.5953 90.1622 46.3264 88.0248 45.9536L88.02 45.9489Z" fill="#a3a3a3"/>
<path d="M108.795 39.5458C108.889 38.4747 108.757 37.3989 108.403 36.3844C108.049 35.3699 107.478 34.4451 106.733 33.6665C105.987 32.8927 105.086 32.284 104.09 31.8829C103.09 31.4819 102.019 31.3026 100.943 31.3545C99.8388 31.3545 98.7489 31.5762 97.7344 32.015C96.7199 32.4539 95.8092 33.0956 95.059 33.9025C94.3087 34.7093 93.7284 35.6625 93.365 36.7005C92.997 37.7386 92.8507 38.8427 92.9309 39.9421C92.8224 41.0085 92.9451 42.0891 93.2895 43.1083C93.634 44.1275 94.1955 45.057 94.9316 45.8356C95.6676 46.6188 96.5642 47.2323 97.5598 47.638C98.5554 48.0438 99.6265 48.2326 100.698 48.1854C101.811 48.1901 102.92 47.9683 103.944 47.5295C104.973 47.0907 105.893 46.4443 106.662 45.6374C107.426 44.8258 108.021 43.8679 108.398 42.8204C108.776 41.7729 108.936 40.6546 108.87 39.5458H108.79H108.795ZM106.204 39.5458C106.204 43.6037 104.175 46.2697 101.052 46.2697C97.9279 46.2697 95.8705 43.6792 95.8705 39.6779C95.8705 35.6766 97.6872 33.0059 101 33.0059C104.312 33.0059 106.341 35.5681 106.341 39.5411H106.209L106.204 39.5458Z" fill="#a3a3a3"/>
<path d="M122.229 32.7134H122.361C123.041 32.9352 123.739 33.0956 124.442 33.1947V44.052L116.43 32.4445C116.232 32.1047 115.94 31.8358 115.59 31.6565C115.241 31.4819 114.845 31.4111 114.458 31.4536H111.787V31.6659C111.787 32.6804 112.188 32.921 113.736 33.2136V46.0196C112.132 46.2839 111.575 46.5245 111.575 47.5673V47.756H117.983V46.5575H117.851C117.162 46.3499 116.454 46.1989 115.741 46.1046V35.7238L124.178 47.8646H124.74C126.476 47.8646 126.476 46.0243 126.476 45.0382V33.2466C128.08 32.9541 128.637 32.7417 128.637 31.6989V31.4866H122.253L122.225 32.7134H122.229Z" fill="#a3a3a3"/>
<path d="M145.085 31.4867H131.519C131.397 31.8736 131.34 32.2794 131.359 32.6852C131.406 33.5958 131.6 34.4971 131.921 35.3511H132.911C133.251 34.5726 133.501 33.7563 133.657 32.9211H136.993V45.7554C135.417 45.9442 134.723 46.2367 134.671 47.3031V47.5154H141.697V46.2603H141.537C140.886 46.0857 140.23 45.9536 139.56 45.8592V33.1853H142.816C142.985 34.0158 143.236 34.8321 143.566 35.6154H144.552C144.882 34.7613 145.08 33.8601 145.142 32.9494C145.161 32.5436 145.104 32.1378 144.981 31.7509L145.09 31.4819L145.085 31.4867Z" fill="#a3a3a3"/>
<path d="M157.555 33.1948C157.716 33.978 157.966 34.7377 158.301 35.4644H159.263C159.603 34.6103 159.801 33.7091 159.853 32.7984C159.872 32.4115 159.815 32.0198 159.693 31.6518H147.915V31.8641C147.915 32.9305 148.42 33.1428 150.025 33.4118V46.1943C148.42 46.4632 147.915 46.6755 147.915 47.7702V47.959H159.665V47.8269C159.801 47.4305 159.863 47.0153 159.853 46.6C159.806 45.6847 159.617 44.7881 159.292 43.9341L159.4 43.5613H158.409V43.6934C158.084 44.4673 157.843 45.2694 157.687 46.0952H152.747V40.0932H156.541C156.833 40.1262 157.135 40.0696 157.395 39.9328C157.659 39.796 157.871 39.5789 158.008 39.3194V38.3049H152.667V33.2089H157.555V33.1948Z" fill="#a3a3a3"/>
<path d="M174.567 43.8114L172.189 40.315C173.095 39.9705 173.878 39.3666 174.444 38.5786C175.01 37.7906 175.331 36.8563 175.364 35.8843C175.364 33.0579 173.519 31.4819 170.023 31.4819H162.818C162.855 32.4492 163.374 32.6663 164.894 32.9211V45.7271C163.29 45.9961 162.733 46.232 162.733 47.2748V47.4635H169.702V46.265C169.023 46.0574 168.324 45.9064 167.616 45.8121V40.4754C168.353 40.5415 169.093 40.5415 169.834 40.4754L172.958 45.0901C174.293 47.171 175.067 47.7561 176.322 47.7561C176.832 47.7561 177.337 47.6051 177.766 47.3314V46.3453L177.473 46.6142C176.247 45.9914 175.232 45.0146 174.562 43.8114H174.567ZM170.726 38.8806C170.183 39.074 169.608 39.1448 169.037 39.0882C168.584 39.1259 168.126 39.1259 167.673 39.0882V33.0296C168.296 32.9919 168.919 32.9919 169.542 33.0296C171.759 33.0296 172.878 34.0441 172.878 35.9928C172.896 36.7761 172.642 37.5405 172.156 38.1539V37.9652C171.75 38.371 171.259 38.6824 170.721 38.8759L170.726 38.8806Z" fill="#a3a3a3"/>
<path d="M162.818 31.4866H162.827C162.827 31.4489 162.818 31.4205 162.818 31.3781V31.4866Z" fill="#a3a3a3"/>
<path d="M180.389 31.4866H180.399C180.399 31.4489 180.389 31.4205 180.389 31.3781V31.4866Z" fill="#a3a3a3"/>
<path d="M192.138 43.8114L189.76 40.315C190.671 39.9753 191.459 39.3713 192.025 38.5833C192.591 37.7953 192.907 36.8563 192.936 35.8843C192.936 33.0579 191.091 31.4819 187.594 31.4819H180.389C180.427 32.4492 180.946 32.6663 182.494 32.9211V45.7271C180.866 45.9961 180.304 46.232 180.304 47.2748V47.4635H187.273V46.265C186.594 46.0574 185.896 45.9064 185.193 45.8121V40.4754C185.929 40.5415 186.669 40.5415 187.41 40.4754L190.534 45.0901C191.869 47.171 192.643 47.7561 193.898 47.7561C194.408 47.7561 194.913 47.6051 195.342 47.3314V46.3453L195.073 46.6142C193.832 46.0008 192.808 45.0241 192.133 43.8114H192.138ZM188.283 38.8759C187.741 39.0693 187.16 39.1401 186.585 39.0882C186.132 39.1259 185.674 39.1259 185.221 39.0882V33.0296C185.844 32.9919 186.467 32.9919 187.089 33.0296C189.307 33.0296 190.43 34.0441 190.43 35.9928C190.463 36.7714 190.218 37.5405 189.737 38.1539V37.9652C189.321 38.371 188.831 38.6777 188.283 38.8711V38.8759Z" fill="#a3a3a3"/>
<path d="M209.388 43.5472H208.402V43.6793C208.062 44.4484 207.822 45.2553 207.68 46.081H202.74V40.0791H206.534C206.826 40.1121 207.128 40.0555 207.388 39.9186C207.647 39.7818 207.864 39.5647 208.001 39.3052V38.2907H202.66V33.1948H207.548C207.709 33.978 207.959 34.7377 208.298 35.4644H209.285C209.624 34.6103 209.822 33.7091 209.874 32.7984C209.893 32.4115 209.837 32.0198 209.714 31.6518H197.937V31.8641C197.937 32.9305 198.441 33.1428 200.046 33.4118V46.1943C198.441 46.4632 197.937 46.6755 197.937 47.7702V47.959H209.686V47.8269C209.832 47.4352 209.903 47.02 209.898 46.6C209.841 45.6847 209.643 44.7834 209.308 43.9341L209.388 43.5613V43.5472Z" fill="#a3a3a3"/>
<path d="M221.222 31.4867V32.7135H221.354C221.953 32.8739 222.557 32.9966 223.17 33.0862H223.359L220.316 39.1684L217.324 33.0862H217.485C218.098 33.0107 218.707 32.8881 219.301 32.7135H219.433V31.4867H212.648V31.699C212.648 32.6852 213.153 32.8975 214.408 33.1948L218.867 41.4144V46.0291C217.131 46.3217 216.626 46.5906 216.626 47.6051V47.7938H223.647V46.5953H223.515C222.831 46.3877 222.137 46.2273 221.429 46.1141V40.9378L225.487 33.1995C226.69 32.9305 227.195 32.6663 227.195 31.7037V31.4914H221.212L221.222 31.4867Z" fill="#a3a3a3"/>
<path d="M36.0216 30.8969C36.2622 30.8969 36.2623 30.3118 36.2623 30.3118C36.5312 24.9751 36.2623 20.384 36.2623 20.384C36.1018 18.6476 35.5167 18.5438 35.5167 18.5438H36.451C36.4368 18.2607 36.3708 17.9776 36.2623 17.718C34.2333 11.8482 33.0301 9.25775 33.0301 9.25775C31.3739 13.9008 30.3594 17.6614 30.3594 17.6614L30.199 18.5957C32.4167 18.5957 32.8697 18.9165 32.8697 18.9165C33.2566 19.1147 33.5916 19.4026 33.8417 19.7564C34.0917 20.1103 34.2522 20.5256 34.3088 20.9549C34.3654 21.3843 34.3088 21.8232 34.1578 22.2337C34.0068 22.6395 33.7567 23.0028 33.4264 23.2906C32.8979 23.72 32.2609 23.9984 31.5815 24.0928C32.4308 26.0509 33.4359 27.9336 34.6013 29.7219C35.5356 31.1375 36.0169 30.8969 36.0169 30.8969H36.0216Z" fill="#a3a3a3"/>
<path d="M17.1006 19.8602C16.5957 20.1056 16.171 20.4784 15.8643 20.9455C15.4066 22.0166 15.1896 23.1726 15.2226 24.3334C15.0339 25.8244 15.2556 27.3344 15.8643 28.7074C16.0908 29.1746 16.44 29.5709 16.8694 29.8635C17.2987 30.156 17.7989 30.3259 18.3179 30.3636C18.936 30.425 19.5589 30.2976 20.1015 29.9956C20.6442 29.6936 21.083 29.2359 21.3614 28.6839C21.8144 27.2825 22.0125 25.8056 21.9465 24.3334C21.9984 23.1538 21.7294 21.9836 21.1726 20.9455C20.9226 20.5161 20.564 20.1622 20.1299 19.9216C19.7005 19.6762 19.2098 19.5535 18.7143 19.5582C18.1575 19.5111 17.596 19.6149 17.0958 19.8602H17.1006Z" fill="#a3a3a3"/>
<path d="M24.7011 8.5405C24.602 8.25739 24.418 8.01674 24.1726 7.84216C23.9272 7.67229 23.6394 7.57792 23.3374 7.57792C22.4031 7.48827 21.4642 7.48827 20.5346 7.57792C20.5346 7.57792 19.7325 7.57792 19.7891 8.6443V11.3103H23.2619C23.4884 11.3008 23.7102 11.2678 23.9272 11.2017L23.7149 12.9901C23.7149 12.9901 23.7149 12.6975 19.8976 12.8296C19.8598 12.8296 19.8268 12.8485 19.7985 12.8721C19.7702 12.8957 19.7513 12.9287 19.7372 12.9617V16.4818C19.7891 16.7271 19.9307 16.9442 20.1289 17.0904C20.3318 17.2367 20.5818 17.3075 20.8319 17.2792C22.2286 17.3594 23.6252 17.2603 24.9983 16.9866C24.9983 16.9866 25.3475 16.9866 25.8005 16.1043C25.8005 16.1043 25.8005 16.3732 25.5882 18.5862H28.2588C28.2588 18.5862 28.608 18.5862 28.608 18.2134C28.608 17.8407 28.7401 17.8926 28.1267 16.293C27.1217 13.6506 25.9798 11.0555 24.7105 8.52634L24.7011 8.5405Z" fill="#a3a3a3"/>
<path d="M47.9592 0H2.32173C2.01502 0 1.70836 0.0613394 1.42525 0.179302C1.14214 0.297265 0.882579 0.471851 0.670246 0.688903C0.453194 0.905954 0.283357 1.16547 0.170113 1.4533C0.0568687 1.73641 -0.00446506 2.04312 0.000253452 2.34982V47.8693C0.000253452 48.176 0.0521502 48.4827 0.170113 48.7658C0.283357 49.0489 0.457912 49.3085 0.670246 49.5302C0.887297 49.7473 1.14214 49.9219 1.42525 50.0398C1.70836 50.1578 2.01502 50.2191 2.32173 50.2191H47.9592C48.5821 50.2191 49.1813 49.9738 49.6202 49.5302C50.059 49.0914 50.309 48.4922 50.309 47.8693V2.34982C50.309 1.72698 50.0637 1.12772 49.6202 0.688903C49.1813 0.250081 48.5821 0 47.9592 0ZM40.7493 42.6884C40.7493 42.6884 40.7493 43.4905 40.2964 43.4905C39.0648 43.6604 37.8144 43.6604 36.5829 43.4905C35.3797 43.3348 34.1576 43.3348 32.9496 43.4905C32.9496 43.4905 33.563 43.3301 33.6716 41.7022C33.6716 41.7022 33.8603 37.0875 33.6716 31.9349C33.6716 31.9349 33.6716 31.1894 33.162 31.1328C33.0063 31.1516 32.8505 31.1233 32.709 31.0573C32.5674 30.9912 32.4494 30.8874 32.3598 30.76C32.3598 30.76 30.7838 27.5561 29.6891 25.0223L29.3683 24.1682C29.3683 24.1682 29.1276 23.8474 29.6089 23.9559C30.2318 23.9559 30.8357 23.7388 31.317 23.3425C31.5907 23.0735 31.7936 22.748 31.9068 22.3846C32.0248 22.0213 32.0484 21.6391 31.9824 21.2616C31.954 20.9502 31.8313 20.6577 31.6331 20.417C31.4302 20.1764 31.1613 20.0065 30.8641 19.9263C30.1091 19.7281 29.3211 19.7281 28.5661 19.9263C28.4104 19.9546 28.2688 20.0348 28.1698 20.1575C28.0707 20.2802 28.0235 20.4359 28.0282 20.5916V29.8776C28.0282 29.8776 27.8678 30.9204 29.071 30.8402H30.7272C30.7272 30.8402 31.2604 30.8402 31.0764 31.213L30.8641 32.3879C30.8641 32.3879 30.864 32.1991 30.1987 32.1755C29.0993 32.0104 27.9857 32.0104 26.8863 32.1755C26.8863 32.1755 26.2446 32.1755 26.221 32.5483V36.2854H28.8917C29.5334 36.3467 30.1751 36.3467 30.8121 36.2854L30.4629 38.0737C30.2412 37.9133 29.9628 37.8425 29.6891 37.8849C28.5095 37.7528 27.3157 37.7528 26.1361 37.8849V41.9429C26.1361 41.9429 26.1361 43.3301 26.7778 43.4905C25.5982 43.3584 24.4044 43.3584 23.2248 43.4905C23.4701 43.3773 23.6777 43.1886 23.824 42.9573C23.9656 42.7261 24.0363 42.4572 24.0269 42.1835C24.0269 42.1835 24.3478 37.3565 24.2156 32.9258C24.2156 32.9258 24.2157 31.0856 23.6023 30.8732H24.7253C24.7253 30.8732 25.6076 31.0337 25.768 29.033C25.768 29.033 25.9568 27.2447 25.9804 24.9798C25.9804 23.7247 25.9804 22.3139 25.7917 21.0304C25.7917 21.0304 25.7916 19.0298 24.5082 18.8976H20.0209C21.2335 19.2327 22.2905 19.9829 23.003 21.0163C23.7155 22.0496 24.0411 23.3047 23.9184 24.5551V25.0081C24.0646 26.7021 23.6117 28.3913 22.6349 29.7833C22.6349 29.7833 22.3141 30.5052 20.2568 31.0384C20.2568 31.0384 19.3745 31.3876 19.4028 32.7984V42.5657C19.4264 42.7875 19.5113 42.9951 19.6482 43.1697C19.785 43.3443 19.969 43.4764 20.1766 43.5519C18.8743 43.3867 17.5625 43.3867 16.2602 43.5519C16.3876 43.5377 16.8359 43.4339 16.9727 42.7025C17.3361 40.9048 17.4635 39.0646 17.3455 37.2338V32.5625C17.3455 32.5625 17.3455 31.0148 16.4632 30.8025C15.5336 30.6562 14.6701 30.2362 13.9812 29.604C13.9812 29.604 12.8582 28.7499 12.8063 25.3337C12.7969 25.1544 12.7969 24.9798 12.8063 24.8005C12.7638 23.5501 12.995 22.3044 13.4716 21.1437C13.7594 20.535 14.1888 20.0065 14.722 19.596C15.2552 19.1855 15.8827 18.9118 16.5433 18.7938C16.5433 18.7938 15.7176 17.2745 10.2158 8.97461V17.5387C10.2489 17.8077 10.3716 18.053 10.565 18.2418C10.7585 18.4258 11.0133 18.539 11.2822 18.5532H13.7641C13.7641 18.5532 13.2829 18.5532 10.1309 24.1824C10.0035 24.3806 9.88553 24.5835 9.78172 24.7958C9.37121 25.4422 9.11643 26.1689 9.03622 26.9286V29.8918C9.03622 29.8918 9.03622 30.6137 10.1026 30.7741H12.1834C12.0372 30.7647 11.8909 30.7883 11.7541 30.8402C11.6173 30.8921 11.4898 30.9676 11.386 31.0667C11.2822 31.1658 11.1926 31.2837 11.1312 31.4206C11.0699 31.5527 11.0369 31.699 11.0369 31.8452C10.7962 36.2476 11.0369 41.5559 11.0369 41.5559C11.0369 42.141 11.8909 42.1977 11.8909 42.1977C12.778 42.259 13.6745 42.259 14.5616 42.1977C14.7975 42.1646 15.0193 42.0797 15.2222 41.957C15.4251 41.8343 15.5996 41.6692 15.7365 41.4757L15.4676 42.9715C15.4676 42.9715 15.4676 43.2924 14.9344 43.4245C14.1417 43.5708 13.3253 43.5708 12.5326 43.4245C11.0746 43.3348 9.61188 43.3348 8.15386 43.4245C8.15386 43.4245 9.05981 43.1555 9.03622 41.3436V32.8833C9.03622 32.8833 9.0362 31.0431 7.78108 31.095H6.09654C6.40796 30.9912 6.67692 30.7977 6.8751 30.5335C7.06856 30.2693 7.18183 29.9531 7.19126 29.6275V26.452C7.1488 25.7584 6.92703 25.0883 6.54955 24.5032C5.87009 23.0263 5.02544 21.6297 4.03927 20.3415C3.45418 19.5205 2.62376 18.9118 1.66118 18.6051H4.57247C5.17643 18.8646 5.69549 19.294 6.06825 19.8319C6.52123 20.417 8.5502 24.2343 8.5502 24.2343L10.7113 20.417C10.7113 20.417 11.4851 18.7891 10.3102 18.6806H7.42719C7.71502 18.6806 7.98869 18.5674 8.19159 18.3692C8.39448 18.171 8.51242 17.8973 8.52186 17.6142C8.68229 14.4575 8.68229 11.2961 8.52186 8.14416C8.52186 8.14416 8.52189 6.75691 7.96038 6.38415H11.6172C11.7022 7.26651 12.0325 8.11112 12.5798 8.81418L17.3313 16.3638V8.36121C17.3313 8.36121 17.3314 6.54458 16.5858 6.41246H25.4C25.4 6.41246 25.853 6.28034 26.2022 7.26651C27.0468 9.70126 28.0801 12.0652 29.3022 14.3348C29.3022 14.3348 30.2884 11.6689 31.5718 7.39863C31.5718 7.39863 31.8408 6.54458 31.3831 6.35584C32.2702 6.47852 33.1666 6.47852 34.0537 6.35584C34.2283 7.59209 34.6058 8.79059 35.1767 9.90416C35.1767 9.90416 35.5778 10.947 37.2057 14.9199C37.2057 14.9199 38.2721 12.254 39.5272 7.95541C39.5272 7.95541 40.0604 6.70029 39.3668 6.43605C40.2539 6.53042 41.1504 6.53042 42.0375 6.43605C42.0375 6.43605 41.5562 6.62479 37.6587 18.6051H38.6732C38.6732 18.6051 38.2202 18.6051 38.1636 19.4875V30.2929C38.1636 30.2929 38.1636 31.0667 38.8855 30.9865H39.9C39.9 30.9865 40.6219 30.9865 40.5134 31.2271L40.2444 32.6144C40.15 32.4964 40.0274 32.4068 39.8859 32.3501C39.7443 32.2935 39.5933 32.2746 39.4423 32.2935C38.3759 32.1755 37.3048 32.1755 36.2384 32.2935C36.2384 32.2935 35.5967 32.2935 35.625 32.7984V36.1863H38.0834C38.7015 36.2854 39.3337 36.2854 39.9519 36.1863L39.6829 37.8661C39.4329 37.7245 39.145 37.6585 38.8572 37.6773C37.7814 37.5971 36.7008 37.5971 35.625 37.6773V41.5182C35.625 41.5182 35.625 42.1316 36.479 42.1835C37.267 42.3203 38.0692 42.3203 38.8572 42.1835C38.8572 42.1835 40.4851 42.1835 40.8059 41.2492L40.7257 42.6884H40.7493ZM43.8494 31.0573C43.3964 31.0573 42.9953 30.5524 42.9953 30.5524C41.693 28.3111 40.2397 26.1642 38.6449 24.121C41.3156 20.837 43.052 19.0534 43.052 19.0534C43.1888 18.9212 43.354 18.8174 43.5333 18.7467C43.7126 18.6759 43.9013 18.6476 44.0947 18.6523H45.8312C45.2697 18.9873 44.7648 19.412 44.3354 19.9074C42.6509 21.5353 40.8626 23.6445 40.8626 23.6445C45.2933 30.6892 46.336 31.062 46.336 31.062H43.8541L43.8494 31.0573Z" fill="#a3a3a3"/>
</svg>
